<svg xmlns="http://www.w3.org/2000/svg" viewBox="0 0 233 70"><defs><style>.cls-1{fill:#969695;}.cls-2{fill:none;stroke:#9f9e9d;}.cls-3,.cls-5,.cls-8{fill:#fff;}.cls-4,.cls-5,.cls-8{isolation:isolate;}.cls-5{font-size:10px;font-family:SohoGothicPro-Regular, Soho Gothic Pro;}.cls-6{letter-spacing:-0.01em;}.cls-7{letter-spacing:-0.03em;}.cls-8{font-size:12px;font-family:SohoGothicPro-Bold, Soho Gothic Pro;font-weight:700;}</style></defs><title>platpass_unselected</title><g id="Layer_2" data-name="Layer 2"><g id="Layer_1-2" data-name="Layer 1"><rect id="Rectangle_15-5" data-name="Rectangle 15-5" class="cls-1" width="233" height="70" rx="13" ry="13"/><line id="Line_2-2" data-name="Line 2-2" class="cls-2" x1="69" y1="10" x2="69" y2="60"/><g id="Logo_FF-2" data-name="Logo FF-2"><path id="Path_44-2" data-name="Path 44-2" class="cls-3" d="M39.11,42,41.55,25.5h-10l-.88,5.7h4L33.06,42H29l-.87,5.7H42.25l.86-5.7ZM43,25.5l-.86,5.7h8L51,25.5ZM41,39H45.2L46,33.53H41.79L41,39Z"/><path id="Path_45-2" data-name="Path 45-2" class="cls-3" d="M27.15,27.42h-.37l.32-1.57h-.56l.05-.35H28l-.06.35h-.53Z"/><path id="Path_46-2" data-name="Path 46-2" class="cls-3" d="M29.68,26.22l-.56,1h-.38l-.19-1-.27,1.2H27.9l.47-1.92h.37L29,26.84l.69-1.34h.43l-.27,1.92h-.35Z"/></g><g id="Platinum_Passport" data-name="Platinum Passport" class="cls-4"><text class="cls-5" transform="translate(75 31)">Pl<tspan class="cls-6" x="8.6" y="0">a</tspan><tspan x="13.9" y="0">tinum</tspan></text><text class="cls-5" transform="translate(75 46)"><tspan class="cls-7">P</tspan><tspan x="5.75" y="0">assport</tspan></text></g><g id="_IDR_175_000" data-name=" IDR 175 000" class="cls-4"><text class="cls-8" transform="translate(140 39)">+ IDR 175,000</text></g></g></g></svg>