<svg id="Layer_1" data-name="Layer 1" xmlns="http://www.w3.org/2000/svg" viewBox="0 0 708 206"><defs><style>.cls-1,.cls-17,.cls-19{fill:#fff;}.cls-2,.cls-3,.cls-4,.cls-5{isolation:isolate;}.cls-3{font-size:20px;}.cls-20,.cls-3{fill:#c82031;}.cls-3,.cls-4{font-family:SohoGothicPro-Bold, Soho Gothic Pro;font-weight:700;}.cls-4{font-size:16px;}.cls-4,.cls-5{fill:#3c3c3b;}.cls-5{font-size:7.5px;font-family:SohoGothicPro-Italic, Soho Gothic Pro;font-style:italic;}.cls-6{letter-spacing:-0.02em;}.cls-7{letter-spacing:-0.04em;}.cls-8{letter-spacing:0em;}.cls-9{letter-spacing:0em;}.cls-10{letter-spacing:-0.03em;}.cls-11{letter-spacing:-0.01em;}.cls-12{letter-spacing:-0.01em;}.cls-13{letter-spacing:-0.01em;}.cls-14{letter-spacing:-0.08em;}.cls-15{letter-spacing:-0.02em;}.cls-16{letter-spacing:-0.03em;}.cls-17{stroke:#c72031;}.cls-17,.cls-19{stroke-miterlimit:10;stroke-width:2px;}.cls-18{fill:#c72031;}.cls-19{stroke:#c82031;}.cls-21{letter-spacing:-0.02em;}.cls-22{letter-spacing:-0.02em;}.cls-23{letter-spacing:-0.01em;}.cls-24{letter-spacing:-0.03em;}</style></defs><title>Base</title><g id="Group_28" data-name="Group 28"><rect id="Rectangle_10-2" data-name="Rectangle 10-2" class="cls-1" width="708" height="206" rx="14" ry="14"/><g id="IDR_475_000_Gym_Membership" data-name="IDR 475 000 Gym Membership" class="cls-2"><text class="cls-3" transform="translate(18.55 78)">IDR 475,000</text><text class="cls-4" transform="translate(64.57 103)">Gym</text><text class="cls-4" transform="translate(31.74 127)">Membership</text></g><g id="Pin-Loaded_Weights" data-name="Pin-Loaded Weights" class="cls-2"><text class="cls-5" transform="translate(192.25 84)">Pin-<tspan class="cls-6" x="13.9" y="0">L</tspan><tspan x="17.81" y="0">oaded</tspan></text><text class="cls-5" transform="translate(198.03 95)"><tspan class="cls-7">W</tspan><tspan x="6.45" y="0">eig</tspan><tspan class="cls-6" x="17.05" y="0">h</tspan><tspan class="cls-8" x="21.37" y="0">ts</tspan></text></g><g id="Free_Weights" data-name="Free Weights" class="cls-2"><text class="cls-5" transform="translate(253.45 84)">F<tspan class="cls-9" x="4.27" y="0">r</tspan><tspan x="7.06" y="0">ee </tspan><tspan class="cls-7" x="17.17" y="0">W</tspan><tspan x="23.63" y="0">eig</tspan><tspan class="cls-6" x="34.22" y="0">h</tspan><tspan class="cls-8" x="38.54" y="0">ts</tspan></text></g><g id="Boxing_Area" data-name="Boxing Area" class="cls-2"><text class="cls-5" transform="translate(315.22 84)">B<tspan class="cls-10" x="4.79" y="0">o</tspan><tspan x="8.95" y="0">xing A</tspan><tspan class="cls-9" x="30.1" y="0">r</tspan><tspan x="32.89" y="0">ea</tspan></text></g><g id="Cardio_Entertainment" data-name="Cardio Entertainment" class="cls-2"><text class="cls-5" transform="translate(385.11 84)"><tspan class="cls-11">C</tspan><tspan x="4.06" y="0">a</tspan><tspan class="cls-12" x="8.4" y="0">r</tspan><tspan x="11.18" y="0">dio</tspan></text><text class="cls-5" transform="translate(370.83 95)">E<tspan class="cls-6" x="4.35" y="0">n</tspan><tspan class="cls-13" x="8.67" y="0">t</tspan><tspan x="11.54" y="0">er</tspan><tspan class="cls-13" x="18.7" y="0">t</tspan><tspan x="21.58" y="0">ainme</tspan><tspan class="cls-6" x="43.06" y="0">n</tspan><tspan class="cls-8" x="47.38" y="0">t</tspan></text></g><g id="Towel_Service" data-name="Towel Service" class="cls-2"><text class="cls-5" transform="translate(433.38 84)"><tspan class="cls-14">T</tspan><tspan class="cls-6" x="3.94" y="0">o</tspan><tspan class="cls-11" x="8.13" y="0">w</tspan><tspan x="14.34" y="0">el Servi</tspan><tspan class="cls-15" x="39.47" y="0">c</tspan><tspan class="cls-8" x="42.9" y="0">e</tspan></text></g><g id="Changing_Rooms" data-name="Changing Rooms" class="cls-2"><text class="cls-5" transform="translate(499.74 84)">Changing</text><text class="cls-5" transform="translate(504.31 95)"><tspan class="cls-11">R</tspan><tspan x="4.67" y="0">ooms</tspan></text></g><g id="Lockers" class="cls-2"><text class="cls-5" transform="translate(564.85 84)"><tspan class="cls-6">L</tspan><tspan x="3.92" y="0">oc</tspan><tspan class="cls-16" x="11.83" y="0">k</tspan><tspan x="15.52" y="0">ers</tspan></text></g><g id="Toiletries" class="cls-2"><text class="cls-5" transform="translate(622.03 84)"><tspan class="cls-14">T</tspan><tspan x="3.94" y="0">oil</tspan><tspan class="cls-6" x="12.11" y="0">e</tspan><tspan class="cls-8" x="16.3" y="0">tries</tspan></text></g><g id="Club_-_Boxing" data-name="Club - Boxing"><path id="Path_52" data-name="Path 52" class="cls-17" d="M235,373.25H197.78a7.46,7.46,0,0,1-7.44-7.47,7.59,7.59,0,0,1,.08-1.07l5.66-37.45a7.46,7.46,0,0,1,7.36-6.31H240.7a7.46,7.46,0,0,1,7.44,7.48,9.81,9.81,0,0,1-.08,1.07l-5.69,37.44A7.43,7.43,0,0,1,235,373.25Z" transform="translate(116.96 -300.95)"/><g id="Group_1" data-name="Group 1"><path id="Path_53" data-name="Path 53" class="cls-18" d="M226.76,339.54v-.77a2.9,2.9,0,0,0-2.88-2.9h-.4l-3.59-4.7v-1.78a.63.63,0,0,0-.6-.65.64.64,0,0,0-.66.6v1.83l-3.55,4.71h-.46a2.87,2.87,0,0,0-2.89,2.87v1.17h15Zm-10.11-3.67,2.61-3.45,2.65,3.45Z" transform="translate(116.96 -300.95)"/><path id="Path_54" data-name="Path 54" class="cls-18" d="M211.73,343.51V357.7h15V343.51Z" transform="translate(116.96 -300.95)"/><path id="Path_55" data-name="Path 55" class="cls-18" d="M211.73,361.43v1.05a2.88,2.88,0,0,0,2.88,2.89h9.25a2.89,2.89,0,0,0,2.9-2.88h0v-1.26h-15Z" transform="translate(116.96 -300.95)"/></g></g><g id="Club_-_Cardio_Entertainment" data-name="Club - Cardio Entertainment"><path id="Path_56" data-name="Path 56" class="cls-17" d="M295.16,373.25H257.89a7.46,7.46,0,0,1-7.43-7.47,6.35,6.35,0,0,1,.08-1.07l5.68-37.45a7.44,7.44,0,0,1,7.36-6.31h37.27a7.46,7.46,0,0,1,7.43,7.48,6.51,6.51,0,0,1-.08,1.07l-5.65,37.44A7.52,7.52,0,0,1,295.16,373.25Z" transform="translate(116.96 -300.95)"/><g id="Group_2" data-name="Group 2"><path id="Path_57" data-name="Path 57" class="cls-18" d="M279.68,341.38l4.54,2.62-4.54,2.61-4.53,2.65V338.77Z" transform="translate(116.96 -300.95)"/><path id="Path_58" data-name="Path 58" class="cls-18" d="M261.07,332.25V362a1.16,1.16,0,0,0,1.15,1.15h34.3a1.17,1.17,0,0,0,1.15-1.15V331.1H262.22A1.16,1.16,0,0,0,261.07,332.25Zm4.08,1.81h28.31a.84.84,0,0,1,.83.84V353a.83.83,0,0,1-.83.83H265.15a.82.82,0,0,1-.8-.83V334.9A.82.82,0,0,1,265.15,334.06Zm2.12,24.82h-2.58a.43.43,0,0,1-.45-.41h0v-1a.44.44,0,0,1,.45-.42h2.58a.43.43,0,0,1,.42.42h0v1A.41.41,0,0,1,267.27,358.88Zm4.15,1.19a2.12,2.12,0,0,1-.7-4.18,2.14,2.14,0,0,1,2.45,1.74,2.73,2.73,0,0,1,0,.7,2.08,2.08,0,0,1-1.75,1.74Zm22.42-1.19H275.36a.54.54,0,0,1-.56-.52v-.76a.56.56,0,0,1,.55-.56h18.49a.53.53,0,0,1,.52.52v.77a.5.5,0,0,1-.44.55Z" transform="translate(116.96 -300.95)"/><path id="Path_59" data-name="Path 59" class="cls-18" d="M284.22,344l-4.54,2.61-4.53,2.65V338.77l4.53,2.61Z" transform="translate(116.96 -300.95)"/><path id="Path_60" data-name="Path 60" class="cls-18" d="M284.22,344l-4.54,2.61-4.53,2.65V338.77l4.53,2.61Z" transform="translate(116.96 -300.95)"/></g></g><g id="Club_-_Changing_Rooms" data-name="Club - Changing Rooms"><path id="Path_61" data-name="Path 61" class="cls-19" d="M415.92,373.21H378.65a7.45,7.45,0,0,1-7.44-7.47,7.71,7.71,0,0,1,.08-1.07L377,327.26a7.43,7.43,0,0,1,7.35-6.31H421.6a7.46,7.46,0,0,1,7.44,7.48,7.82,7.82,0,0,1-.08,1.07l-5.65,37.44A7.52,7.52,0,0,1,415.92,373.21Z" transform="translate(116.96 -300.95)"/><g id="Group_3" data-name="Group 3"><path id="Path_62" data-name="Path 62" class="cls-20" d="M411.11,351.18,401,344.87v-.45a.83.83,0,0,1,.46-.74l.1-.07a2.65,2.65,0,0,0,1.53-2.33,3.07,3.07,0,0,0-2.37-2.83,3.33,3.33,0,0,0-3.07.84,2.91,2.91,0,0,0-.87,2.3v.35c0,.21.42.38.9.38h.18c.49,0,.9-.17.9-.38v-.35c0-.7.21-1,.91-1.22a1.26,1.26,0,0,1,1.15.28.65.65,0,0,1,.17.56.78.78,0,0,1-.34.6l-.87.59a1.51,1.51,0,0,0-.77,1.43v1l-10,6.28a2.57,2.57,0,0,0,1.57,4.71h19a2.55,2.55,0,0,0,1.47-4.68Zm-1,2.16a.48.48,0,0,1-.46.35h-19a.45.45,0,0,1-.45-.31.4.4,0,0,1,.21-.49l9.73-6.1,9.8,6.1A.36.36,0,0,1,410.1,353.34Z" transform="translate(116.96 -300.95)"/><path id="Path_63" data-name="Path 63" class="cls-20" d="M400.12,365.37a18.3,18.3,0,1,1,18.3-18.3h0v0A18.33,18.33,0,0,1,400.12,365.37Zm0-34.69a16.4,16.4,0,1,0,16.39,16.42v0A16.45,16.45,0,0,0,400.12,330.68Z" transform="translate(116.96 -300.95)"/></g></g><g id="Club_-_Free_Weights" data-name="Club - Free Weights"><path id="Path_66" data-name="Path 66" class="cls-19" d="M174.37,373.25H137.14a7.46,7.46,0,0,1-7.44-7.47,7.59,7.59,0,0,1,.08-1.07l5.66-37.45a7.43,7.43,0,0,1,7.35-6.31h37.27a7.46,7.46,0,0,1,7.43,7.48,6.51,6.51,0,0,1-.08,1.07l-5.65,37.44A7.5,7.5,0,0,1,174.37,373.25Z" transform="translate(116.96 -300.95)"/><g id="Group_5" data-name="Group 5"><path id="Path_67" data-name="Path 67" class="cls-20" d="M176.26,343.93a.72.72,0,0,0-.63.8v4.74a.65.65,0,0,0,.47.78.64.64,0,0,0,.78-.47.55.55,0,0,0,0-.31v-4.74A.72.72,0,0,0,176.26,343.93Z" transform="translate(116.96 -300.95)"/><path id="Path_68" data-name="Path 68" class="cls-20" d="M140.91,343.93a.72.72,0,0,0-.63.8v4.74a.65.65,0,0,0,.47.78.64.64,0,0,0,.78-.47.55.55,0,0,0,0-.31v-4.74A.72.72,0,0,0,140.91,343.93Z" transform="translate(116.96 -300.95)"/><path id="Path_69" data-name="Path 69" class="cls-20" d="M148.65,336.75a2.26,2.26,0,0,0-2.1,2.37v15.93a2.24,2.24,0,0,0,2.1,2.37,2.29,2.29,0,0,0,2.12-2.37v-6h15.3v6a2.12,2.12,0,1,0,4.22.5,2.09,2.09,0,0,0,0-.5V339.12a2.24,2.24,0,0,0-2.09-2.37,2.28,2.28,0,0,0-2.12,2.37v6h-15.3v-6A2.26,2.26,0,0,0,148.65,336.75Z" transform="translate(116.96 -300.95)"/><path id="Path_70" data-name="Path 70" class="cls-20" d="M173.05,339.92h-.21a1.61,1.61,0,0,0-1.6,1.57v11.19a1.59,1.59,0,0,0,1.6,1.57h.21a1.62,1.62,0,0,0,1.6-1.57V341.52a1.62,1.62,0,0,0-1.6-1.6Z" transform="translate(116.96 -300.95)"/><path id="Path_71" data-name="Path 71" class="cls-20" d="M144.08,339.92h-.21a1.61,1.61,0,0,0-1.6,1.57v11.19a1.59,1.59,0,0,0,1.6,1.57h.21a1.63,1.63,0,0,0,1.6-1.57V341.52a1.6,1.6,0,0,0-1.6-1.6Z" transform="translate(116.96 -300.95)"/></g></g><g id="Club_-_Lockers" data-name="Club - Lockers"><path id="Path_77" data-name="Path 77" class="cls-19" d="M476.56,373.25H439.29a7.46,7.46,0,0,1-7.44-7.47,7.59,7.59,0,0,1,.08-1.07l5.69-37.45A7.43,7.43,0,0,1,445,321h37.26a7.46,7.46,0,0,1,7.44,7.48,7.82,7.82,0,0,1-.08,1.07L484,366.94A7.5,7.5,0,0,1,476.56,373.25Z" transform="translate(116.96 -300.95)"/><g id="Group_7" data-name="Group 7"><path id="Path_78" data-name="Path 78" class="cls-20" d="M478.17,330.86H467.6v32.45h10.57a.92.92,0,0,0,.9-.9V331.8A.92.92,0,0,0,478.17,330.86Zm-8.44,15.75h2.37V349h-2.37v-2.37Zm6.48,13.22H470.5a.7.7,0,0,1,0-1.4h5.71a.7.7,0,0,1,0,1.4Zm0-3.56H470.5a.7.7,0,0,1,0-1.39h5.71a.7.7,0,0,1,.64.75A.71.71,0,0,1,476.21,356.27Zm0-17H470.5a.7.7,0,0,1,0-1.39h5.71a.7.7,0,0,1,0,1.39Zm0-3.52H470.5a.7.7,0,0,1,0-1.39h5.71a.7.7,0,0,1,0,1.39Z" transform="translate(116.96 -300.95)"/><path id="Path_79" data-name="Path 79" class="cls-20" d="M455.05,330.86v32.45h11.47V330.86Zm8.58,29h-5.72a.7.7,0,0,1,0-1.4h5.72a.7.7,0,0,1,0,1.4Zm0-3.56h-5.72a.71.71,0,0,1-.64-.76.69.69,0,0,1,.64-.63h5.72a.7.7,0,0,1,0,1.39ZM457.25,349v-2.37h2.34V349Zm6.38-9.69h-5.72a.7.7,0,0,1-.13-1.39h5.85a.7.7,0,0,1,.76.63.69.69,0,0,1-.63.76Zm0-3.52h-5.72a.7.7,0,0,1,0-1.39h5.72a.69.69,0,0,1,.63.76.7.7,0,0,1-.63.63Z" transform="translate(116.96 -300.95)"/><path id="Path_80" data-name="Path 80" class="cls-20" d="M443.37,330.86a.92.92,0,0,0-.9.9v30.65a.88.88,0,0,0,.87.9h10.6V330.86Zm1.12,15.75h2.37V349h-2.37Zm6.59,13.22h-5.72a.7.7,0,0,1,0-1.4h5.72a.71.71,0,0,1,.76.64.7.7,0,0,1-.63.76Zm0-3.56h-5.72a.71.71,0,0,1-.64-.76.69.69,0,0,1,.64-.63h5.72a.7.7,0,0,1,.12,1.39Zm0-17h-5.72a.7.7,0,0,1-.13-1.39h5.85a.7.7,0,0,1,.76.63.69.69,0,0,1-.63.76Zm0-3.52h-5.72a.7.7,0,0,1,0-1.39h5.72a.7.7,0,0,1,.76.63.69.69,0,0,1-.63.76Z" transform="translate(116.96 -300.95)"/></g></g><g id="Club_-_Pin_Loaded" data-name="Club - Pin Loaded"><path id="Path_91" data-name="Path 91" class="cls-19" d="M114.3,373.25H77a7.46,7.46,0,0,1-7.43-7.47,7.59,7.59,0,0,1,.08-1.07l5.69-37.45A7.43,7.43,0,0,1,82.71,321H120a7.46,7.46,0,0,1,7.44,7.48,9.81,9.81,0,0,1-.08,1.07l-5.69,37.4A7.43,7.43,0,0,1,114.3,373.25Z" transform="translate(116.96 -300.95)"/><g id="Group_9" data-name="Group 9"><path id="Path_92" data-name="Path 92" class="cls-20" d="M106,362.89h-1.64v-2.44H92.72v2.44H91.29A1.31,1.31,0,0,0,90,364.18v1.22h17.26v-1.22a1.27,1.27,0,0,0-1.23-1.29Z" transform="translate(116.96 -300.95)"/><path id="Path_93" data-name="Path 93" class="cls-20" d="M110.12,340.41v-2.06a3.61,3.61,0,0,0-2.41-3.38l-3.38-1.22v-3.17a1.8,1.8,0,0,0-1.79-1.82h-8a1.81,1.81,0,0,0-1.82,1.79v3.16L89.27,335a3.7,3.7,0,0,0-2.41,3.38v2.06a2.15,2.15,0,0,0-1.74,2.09v6.41a2.11,2.11,0,0,0,2.1,2.13h1.11a2.12,2.12,0,0,0,2.12-2.13h0V342.5a2.09,2.09,0,0,0-1.74-2.09v-2.06a1.77,1.77,0,0,1,1.15-1.64l2.82-1v16h11.65V335.74l2.75,1a1.75,1.75,0,0,1,1.15,1.64v2.06a2.12,2.12,0,0,0-1.74,2.09v6.41a2.13,2.13,0,0,0,2.13,2.13h1.08a2.14,2.14,0,0,0,2.12-2.13V342.5A2.09,2.09,0,0,0,110.12,340.41Z" transform="translate(116.96 -300.95)"/><path id="Path_94" data-name="Path 94" class="cls-20" d="M108.79,353.93h-6.56a1.44,1.44,0,0,0-1.42,1.43h0v.07H96.27v-.07a1.44,1.44,0,0,0-1.43-1.43H88.32a1.44,1.44,0,0,0-1.42,1.43h0v1.43a1.43,1.43,0,0,0,1.42,1.43h6.56a1.44,1.44,0,0,0,1.43-1.43h0v-.07h4.53v.07a1.43,1.43,0,0,0,1.43,1.43h6.52a1.44,1.44,0,0,0,1.43-1.43h0v-1.43a1.47,1.47,0,0,0-1.43-1.43Z" transform="translate(116.96 -300.95)"/></g></g><g id="Club_-_Toiletries" data-name="Club - Toiletries"><path id="Path_118" data-name="Path 118" class="cls-19" d="M536.67,373.25H499.4a7.46,7.46,0,0,1-7.43-7.47,6.35,6.35,0,0,1,.08-1.07l5.68-37.45a7.44,7.44,0,0,1,7.36-6.31h37.27a7.46,7.46,0,0,1,7.43,7.48,6.51,6.51,0,0,1-.08,1.07l-5.65,37.44A7.5,7.5,0,0,1,536.67,373.25Z" transform="translate(116.96 -300.95)"/><g id="Group_15" data-name="Group 15"><path id="Path_119" data-name="Path 119" class="cls-20" d="M520,335a1.43,1.43,0,0,0-1.43-1.43h-1v-2.61H521a1.75,1.75,0,0,1,1.78,1.73h0v0a.61.61,0,0,0,.59.59.6.6,0,0,0,.6-.58h0a3,3,0,0,0-3-3h-1.47a1,1,0,0,0-1-.95H513.7a1.05,1.05,0,0,0-.91,1.17V330a1,1,0,0,0,.91.91h.84v2.62h-.94a1.41,1.41,0,0,0-1.43,1.36v2.16H520Z" transform="translate(116.96 -300.95)"/><path id="Path_120" data-name="Path 120" class="cls-20" d="M531.17,359.55l-.46,0a5.14,5.14,0,0,0-5.09-4.46,3.8,3.8,0,0,0-1.11.14l-.28.07-.14,0-.14.07-.18,0-.13.07-.14.07-.14.07-.14.07-.25.14-.13.07-.14.1-.14.07-.14.14s-.07,0-.1.07l-.18.14-.07.07-.2.2,0,.07-.17.18-.07.07-.14.17-.07.07a1,1,0,0,0-.1.18l-.07.07-.18.28a3.67,3.67,0,0,0-1.39-.28,3.89,3.89,0,0,0,0,7.77h0a3.93,3.93,0,0,0,2.79-1.15l.28.24.14.07.18.14.17.07.14.07a5.56,5.56,0,0,0,2.3.56,5.17,5.17,0,0,0,3.24-1.15,2.91,2.91,0,1,0,2.34-4.64Z" transform="translate(116.96 -300.95)"/><circle id="Ellipse_1" data-name="Ellipse 1" class="cls-20" cx="646.49" cy="40.71" r="1.53"/><path id="Path_121" data-name="Path 121" class="cls-20" d="M524.51,343.89h-.43l-.13,0h-.07l-.14.07-.07,0-.1.07-.07,0-.07.07-.07,0-.07.07-.07.07-.07.07-.07.07-.07.07-.07.07a.13.13,0,0,0,0,.07l-.07.1s0,0,0,.07l-.07.1,0,.07s0,.07,0,.1a.13.13,0,0,0,0,.07s0,.07,0,.14,0,.07,0,.07a.22.22,0,0,1,0,.14v.07c0,.07,0,.14,0,.21s0,.14,0,.24v.18s0,.1,0,.14a.25.25,0,0,0,0,.07s0,.07,0,.14,0,.07,0,.07,0,.07,0,.14,0,0,0,.07l.07.1a.11.11,0,0,0,0,.07l.07.07,0,.1.07.07.07.07.07.07.07.07.07.07.07.07.07.07.07.07.07,0,.1.07.07,0,.14,0H524l.13.07h.07l.14,0h.42a2.23,2.23,0,0,0,.45-4.43h-.41Z" transform="translate(116.96 -300.95)"/><path id="Path_122" data-name="Path 122" class="cls-20" d="M519.7,355.75h.55a7,7,0,0,1,4.29-2.41v-3.17a4.07,4.07,0,0,1-.17-8.12,5.07,5.07,0,0,0-4.88-3.77h-6.8a5,5,0,0,0-5,5V363a2.33,2.33,0,0,0,2.33,2.34h5.44a5.74,5.74,0,0,1,4.25-9.62Z" transform="translate(116.96 -300.95)"/><circle id="Ellipse_2" data-name="Ellipse 2" class="cls-20" cx="647.05" cy="50.71" r="2.89"/></g></g><g id="Club_-_Towels" data-name="Club - Towels"><path id="Path_123" data-name="Path 123" class="cls-19" d="M355.81,373.21H318.53a7.45,7.45,0,0,1-7.43-7.47,7.71,7.71,0,0,1,.08-1.07l5.69-37.41a7.43,7.43,0,0,1,7.35-6.31h37.27a7.46,7.46,0,0,1,7.44,7.48,9.81,9.81,0,0,1-.08,1.07l-5.65,37.44A7.52,7.52,0,0,1,355.81,373.21Z" transform="translate(116.96 -300.95)"/><g id="Group_16" data-name="Group 16"><path id="Path_124" data-name="Path 124" class="cls-20" d="M352.46,339.26l-11.57-6.63a.22.22,0,0,1-.1-.28.19.19,0,0,1,.17-.1l3.21-.48.17.1,11.3,5.54a1.49,1.49,0,0,1,.68,2,1.46,1.46,0,0,1-1,.79l-1.08.24a1.25,1.25,0,0,1-1.36-.66A1.21,1.21,0,0,0,352.46,339.26Z" transform="translate(116.96 -300.95)"/><path id="Path_125" data-name="Path 125" class="cls-20" d="M355.77,350.45l-17.67,4.84c-1.82.46-3.73-.45-5.16-1.6L324.36,346a6.61,6.61,0,0,1,2.9-11.71l6.45-1,14.11,8.54-11,2.48a3,3,0,0,0-2.3,3.27v.21a3.06,3.06,0,0,0,3.42,2.58l.21,0,14.36-3a.73.73,0,0,0,.56-.87v0a.74.74,0,0,0-.7-.56h-.18L339.07,349a1.85,1.85,0,0,1-2.23-1.36v0a1.89,1.89,0,0,1,1.43-2.23l13.73-3a5.16,5.16,0,0,1,6,3.45l.18.49a3.35,3.35,0,0,1-2.23,4.18h-.18Z" transform="translate(116.96 -300.95)"/><path id="Path_126" data-name="Path 126" class="cls-20" d="M323,347.18l10.94,9.3a3.14,3.14,0,0,0,2.79.66l18.65-4.5a2,2,0,0,1,2.37,1.22h0a2,2,0,0,1-1.11,2.62s-.1,0-.14.07L339,362.09a7.28,7.28,0,0,1-7.32-1.78l-9.13-9a2.86,2.86,0,0,1-.05-4.06v0l.1-.1h0a.3.3,0,0,1,.41,0v0Z" transform="translate(116.96 -300.95)"/></g></g><g id="Club_-_Charging_Station" data-name="Club - Charging Station"><path id="Path_64" data-name="Path 64" class="cls-19" d="M445.51,461.29H408.24a7.45,7.45,0,0,1-7.44-7.47,7.82,7.82,0,0,1,.08-1.07l5.69-37.4a7.43,7.43,0,0,1,7.36-6.35h37.26a7.46,7.46,0,0,1,7.44,7.47,7.59,7.59,0,0,1-.08,1.07L452.87,455A7.42,7.42,0,0,1,445.51,461.29Z" transform="translate(116.96 -300.95)"/><g id="Group_4" data-name="Group 4"><path id="Path_65" data-name="Path 65" class="cls-20" d="M439.34,420.4H433.9v-2.79a.76.76,0,0,0-.77-.76h-6.8a.76.76,0,0,0-.76.76v2.79h-5.48a.8.8,0,0,0-.8.78v31.5a.79.79,0,0,0,.78.8h19.24a.79.79,0,0,0,.8-.77v0h0V421.17a.79.79,0,0,0-.77-.77Zm-6,17.85L429,444a.8.8,0,0,1-1.11.2l0,0a.88.88,0,0,1-.35-.8l1-6.52h-1.68a.83.83,0,0,1-.83-.83.79.79,0,0,1,.17-.49l4.29-5.75a.79.79,0,0,1,1.11-.21l0,0a.89.89,0,0,1,.35.8L431,437h1.68a.84.84,0,0,1,.83.84A1.08,1.08,0,0,1,433.31,438.25Z" transform="translate(116.96 -300.95)"/></g></g><g id="Club_-_Jacuzzi" data-name="Club - Jacuzzi"><path id="Path_72" data-name="Path 72" class="cls-19" d="M325.3,461.29H288a7.45,7.45,0,0,1-7.44-7.47,7.82,7.82,0,0,1,.08-1.07l5.69-37.44a7.43,7.43,0,0,1,7.36-6.31H331a7.46,7.46,0,0,1,7.44,7.47,7.59,7.59,0,0,1-.08,1.07L332.69,455A7.48,7.48,0,0,1,325.3,461.29Z" transform="translate(116.96 -300.95)"/><g id="Group_6" data-name="Group 6"><path id="Path_73" data-name="Path 73" class="cls-20" d="M327.81,433.2a3,3,0,0,0-3-3H308.67v-.7h-9.41v.7h-5a3.1,3.1,0,0,0-2.16.87,3,3,0,0,0-.87,2.13,3,3,0,0,0,2.05,2.85v11.4l.8.14a97.62,97.62,0,0,0,16.28,1.33,71,71,0,0,0,14.4-1.33l.77-.17.21-11.37a2.83,2.83,0,0,0,1.19-.73A2.73,2.73,0,0,0,327.81,433.2Zm-7.56,3v10.11c-1.08.14-2.16.28-3.28.35V436.23ZM315,446.87l-2.83.1V436.23H315Zm-4.78.1-3,0v-5.44h1.46v-5.26h1.57Zm-11.05-10.74,0,5.26h1.29v5l-2-.21v-10Zm1.25,3.94v-1.4h6.9v1.4Zm2,1.32h2.82v5.33l-2.82-.2Zm5-10.7v5.06h-6.87v-5.06Zm-13.88,1.68a1.07,1.07,0,0,1,.77-.32h4.95v2.13h-4.92a1.1,1.1,0,0,1-1.08-1.08A1.2,1.2,0,0,1,293.47,432.47Zm1.75,3.76h1.22V446l-1.22-.17Zm27,9.87v-9.87h1.54l-.18,9.59ZM325.51,434a1.11,1.11,0,0,1-.77.31H308.67v-2.13h16.11a1,1,0,0,1,1.05,1,.13.13,0,0,1,0,.06A1,1,0,0,1,325.51,434Z" transform="translate(116.96 -300.95)"/><path id="Path_74" data-name="Path 74" class="cls-20" d="M309.09,425.74a1.6,1.6,0,0,1,.52,1.46.53.53,0,0,0,.39.63h.13a.57.57,0,0,0,.53-.42,2.7,2.7,0,0,0-.73-2.34l0-.07a1.84,1.84,0,0,1-.14-2.59l.21-.2a.5.5,0,0,0,0-.71l0,0h0a.62.62,0,0,0-.77,0,2.91,2.91,0,0,0-.22,4.1l.08.09Z" transform="translate(116.96 -300.95)"/><path id="Path_75" data-name="Path 75" class="cls-20" d="M304.11,425.74a1.72,1.72,0,0,1,.52,1.46.58.58,0,0,0,.42.63h.07a.53.53,0,0,0,.52-.42,2.65,2.65,0,0,0-.77-2.33v0a1.84,1.84,0,0,1-.14-2.59l.21-.2a.5.5,0,0,0,0-.71l0,0h0a.62.62,0,0,0-.77,0,2.91,2.91,0,0,0-.22,4.1l.08.08Z" transform="translate(116.96 -300.95)"/><path id="Path_76" data-name="Path 76" class="cls-20" d="M313.27,425.74a1.81,1.81,0,0,1,.53,1.46.58.58,0,0,0,.42.63h.07a.56.56,0,0,0,.52-.42,2.7,2.7,0,0,0-.73-2.34l0-.07a1.83,1.83,0,0,1-.13-2.59,1.89,1.89,0,0,1,.2-.2.5.5,0,0,0,0-.71l0,0h0a.62.62,0,0,0-.77,0,2.91,2.91,0,0,0-.22,4.1l.09.09Z" transform="translate(116.96 -300.95)"/></g></g><g id="Club_-_Lounge" data-name="Club - Lounge"><path id="Path_81" data-name="Path 81" class="cls-19" d="M385.67,461.29H348.4a7.45,7.45,0,0,1-7.44-7.47,9.81,9.81,0,0,1,.08-1.07l5.69-37.44a7.44,7.44,0,0,1,7.36-6.31h37.27a7.46,7.46,0,0,1,7.43,7.47,7.59,7.59,0,0,1-.08,1.07L393.06,455A7.48,7.48,0,0,1,385.67,461.29Z" transform="translate(116.96 -300.95)"/><g id="Group_8" data-name="Group 8"><path id="Path_82" data-name="Path 82" class="cls-20" d="M388.15,423.33l-4,12.69-.73,11.54a1.18,1.18,0,0,1-1.18,1.11h-.42a1.18,1.18,0,0,1-1.19-1.17h0v-.35H366.81v.35a1.2,1.2,0,0,1-1.18,1.18H365a1.17,1.17,0,0,1-1.19-1.15,1.1,1.1,0,0,1,0-.31l2.65-10.95h2a.67.67,0,0,0,.66-.68v-.65a.75.75,0,0,0-.1-.38l11.68-.91,4.7-11.3a1.2,1.2,0,0,1,1.55-.67h0s0,0,.07,0l.53.24A1.23,1.23,0,0,1,388.15,423.33Z" transform="translate(116.96 -300.95)"/><path id="Path_83" data-name="Path 83" class="cls-20" d="M352.24,434.49h14.61a.66.66,0,0,1,.66.66h0a.67.67,0,0,1-.66.66H352.24a.66.66,0,0,1-.66-.66h0A.68.68,0,0,1,352.24,434.49Z" transform="translate(116.96 -300.95)"/><path id="Path_84" data-name="Path 84" class="cls-20" d="M358,435.85s.66.24.84,3.13v8h1.43v-8.09s.17-2.61.84-3.1" transform="translate(116.96 -300.95)"/><path id="Path_85" data-name="Path 85" class="cls-20" d="M356.32,446.76h6.45a.62.62,0,0,1,.63.59h0a.6.6,0,0,1-.61.59h-6.47a.61.61,0,0,1-.63-.59h0A.62.62,0,0,1,356.32,446.76Z" transform="translate(116.96 -300.95)"/><path id="Path_86" data-name="Path 86" class="cls-20" d="M364.09,427.62h-.24v-.18a.38.38,0,0,0-.38-.38h-3.21a.4.4,0,0,0-.39.38h0v.18h-.27a.24.24,0,0,0-.25.23h0v.39a.1.1,0,0,0,.09.1h4.89a.1.1,0,0,0,.1-.09h0v-.35a.38.38,0,0,0-.35-.28Z" transform="translate(116.96 -300.95)"/><path id="Path_87" data-name="Path 87" class="cls-20" d="M363.08,432.64,363,434s0,.07-.07.07h-2.16a.07.07,0,0,1-.07-.07l-.14-1.32h-.49l.1,1.39a.58.58,0,0,0,.59.53h2.16a.55.55,0,0,0,.56-.53l.14-1.39Z" transform="translate(116.96 -300.95)"/><path id="Path_88" data-name="Path 88" class="cls-20" d="M359.8,430.09l.21,0h.28l-.07-.94h3.18l-.07.9h.27l.21,0,.14-1.43H359.7Z" transform="translate(116.96 -300.95)"/><path id="Path_89" data-name="Path 89" class="cls-20" d="M363.64,430.41H360l-.14,0a.2.2,0,0,0,0,.14h0v.14l.14,1.39a.16.16,0,0,0,.17.14h3.28c.07,0,.17-.07.17-.14l.14-1.32v-.24s0-.07,0-.1Zm-1.43,1.36a.8.8,0,0,1-1.08.17c-.24-.24-.14-.73.17-1.08s.84-.42,1.05-.17A.83.83,0,0,1,362.21,431.77Z" transform="translate(116.96 -300.95)"/><path id="Path_90" data-name="Path 90" class="cls-20" d="M362.18,430.79a.74.74,0,0,0-.56.56.61.61,0,0,1-.18.24l-.17.07c-.07,0-.07.1-.07.18s.07.07.1.07h.07l.17-.1a.57.57,0,0,0,.28-.35.55.55,0,0,1,.39-.39c.07,0,.13,0,.13-.1s0-.13-.1-.13S362.21,430.79,362.18,430.79Z" transform="translate(116.96 -300.95)"/></g></g><g id="Club_-_Pool" data-name="Club - Pool"><path id="Path_95" data-name="Path 95" class="cls-19" d="M265.46,461.29H228.19a7.44,7.44,0,0,1-7.43-7.47,6.51,6.51,0,0,1,.08-1.07l5.68-37.44a7.44,7.44,0,0,1,7.36-6.31h37.23a7.46,7.46,0,0,1,7.44,7.47,7.59,7.59,0,0,1-.08,1.07L272.82,455A7.45,7.45,0,0,1,265.46,461.29Z" transform="translate(116.96 -300.95)"/><g id="Group_10" data-name="Group 10"><path id="Path_96" data-name="Path 96" class="cls-20" d="M266.48,448.12a5.29,5.29,0,0,0-3.73,1.5c-.77.62-1,.8-1.85.8a2.45,2.45,0,0,1-1.85-.8,5.56,5.56,0,0,0-3.77-1.5,5.31,5.31,0,0,0-3.73,1.5c-.76.62-1,.8-1.84.8a2.44,2.44,0,0,1-1.85-.8,5.44,5.44,0,0,0-7.5,0c-.76.62-1,.8-1.84.8a2.53,2.53,0,0,1-1.85-.8,5.64,5.64,0,0,0-3.73-1.5,1.5,1.5,0,1,0,0,3h0a2.47,2.47,0,0,1,1.85.8,5.6,5.6,0,0,0,3.73,1.5,5.53,5.53,0,0,0,3.76-1.5c.77-.63,1-.8,1.85-.8a2.47,2.47,0,0,1,1.85.8,5.65,5.65,0,0,0,3.73,1.5,5.35,5.35,0,0,0,3.73-1.5,2.27,2.27,0,0,1,1.84-.8,2.44,2.44,0,0,1,1.85.8,5.67,5.67,0,0,0,3.77,1.5,5.35,5.35,0,0,0,3.73-1.5,2.28,2.28,0,0,1,1.85-.8,1.5,1.5,0,0,0,0-3Z" transform="translate(116.96 -300.95)"/><path id="Path_97" data-name="Path 97" class="cls-20" d="M266.48,441.49a5.38,5.38,0,0,0-3.73,1.5c-.77.63-1,.8-1.85.8a2.45,2.45,0,0,1-1.85-.8,5.65,5.65,0,0,0-3.77-1.5,5.39,5.39,0,0,0-3.73,1.5,2.27,2.27,0,0,1-1.84.8,2.44,2.44,0,0,1-1.85-.8,5.44,5.44,0,0,0-7.5,0,2.27,2.27,0,0,1-1.84.8,2.45,2.45,0,0,1-1.85-.8,5.69,5.69,0,0,0-3.73-1.5,1.5,1.5,0,0,0,0,3h0a2.47,2.47,0,0,1,1.85.8,5.42,5.42,0,0,0,7.49,0c.77-.62,1-.8,1.85-.8a2.54,2.54,0,0,1,1.85.8,5.6,5.6,0,0,0,3.73,1.5,5.31,5.31,0,0,0,3.73-1.5c.76-.62,1-.8,1.84-.8a2.44,2.44,0,0,1,1.85.8,5.57,5.57,0,0,0,3.77,1.5,5.31,5.31,0,0,0,3.73-1.5,2.31,2.31,0,0,1,1.85-.8,1.5,1.5,0,0,0,0-3Z" transform="translate(116.96 -300.95)"/><path id="Path_98" data-name="Path 98" class="cls-20" d="M232.83,437.87a2.44,2.44,0,0,1,1.85.8,5.59,5.59,0,0,0,3.73,1.5,5.51,5.51,0,0,0,3.77-1.5,2.27,2.27,0,0,1,1.84-.8,2.51,2.51,0,0,1,1.85.8,5.69,5.69,0,0,0,3.73,1.5,5.31,5.31,0,0,0,3.73-1.5c.77-.63,1-.8,1.85-.8a2.45,2.45,0,0,1,1.85.8,5.6,5.6,0,0,0,3.76,1.5,5.29,5.29,0,0,0,3.73-1.5c.77-.63,1-.8,1.85-.8a1.5,1.5,0,0,0,0-3,5.31,5.31,0,0,0-3.73,1.5c-.77.63-1,.8-1.85.8a1.94,1.94,0,0,1-1.6-.63l-.24-.21-.17-.1,0,0-.1-.1,0,0s-.1,0-.1-.1l-.07,0-.1-.07-.07-.07-.1-.07-.1,0-.1-.1s-.07,0-.1,0l-.18-.07-.07,0-.24-.1h0a4.85,4.85,0,0,0-2.09-.38,5.39,5.39,0,0,0-3.73,1.5,5,5,0,0,1-.88.63h0l-.21.07h-.06l-.21.07h-1l-.21-.07h0l-.21-.07a3.87,3.87,0,0,1-.87-.63,5.41,5.41,0,0,0-3.73-1.5,5.51,5.51,0,0,0-3.77,1.5c-.77.63-1,.8-1.85.8a2.54,2.54,0,0,1-1.85-.8,5.65,5.65,0,0,0-3.73-1.5,1.49,1.49,0,0,0-1.5,1.48v0a1.42,1.42,0,0,0,1.42,1.41Z" transform="translate(116.96 -300.95)"/><path id="Path_99" data-name="Path 99" class="cls-20" d="M249.67,435.53c.28,0,.28,0,.8-.42l.18-.14v-2.22h6.72v.76a6.72,6.72,0,0,1,1.92.94V420.26a1.44,1.44,0,0,1,1.43-1.43h3.35a1,1,0,0,0,0-1.95h-3.35a3.35,3.35,0,0,0-3.35,3.35v2.2h-6.72v-2.2a1.43,1.43,0,0,1,1.43-1.43h3.34a1,1,0,1,0,0-1.95h-3.34a3.35,3.35,0,0,0-3.35,3.34V434.9l.17.14C249.39,435.53,249.39,435.53,249.67,435.53Zm.94-4.7v-2.27h6.73v2.27Zm6.73-6.45v2.27h-6.73v-2.27Z" transform="translate(116.96 -300.95)"/></g></g><g id="Club_-_Refreshments" data-name="Club - Refreshments"><path id="Path_100" data-name="Path 100" class="cls-19" d="M505.88,461.29H468.61a7.45,7.45,0,0,1-7.44-7.47,7.82,7.82,0,0,1,.08-1.07l5.66-37.44a7.43,7.43,0,0,1,7.36-6.31h37.26a7.46,7.46,0,0,1,7.44,7.47,9.45,9.45,0,0,1-.08,1.07L513.24,455A7.46,7.46,0,0,1,505.88,461.29Z" transform="translate(116.96 -300.95)"/><g id="Group_11" data-name="Group 11"><path id="Path_101" data-name="Path 101" class="cls-20" d="M484.55,424a3.27,3.27,0,0,1-1.22-2.3,2.76,2.76,0,0,1,1.29-2,1.67,1.67,0,0,0,.62-1.26,1.51,1.51,0,0,0-.62-1.22,2,2,0,0,0-1.29-.45h0a2.06,2.06,0,0,0-1.29.45,6,6,0,0,0-2.51,4.25,6.47,6.47,0,0,0,2.12,4.68l.1.1c.84.83,1.26,1.29,1.05,2.16a1.6,1.6,0,0,0,.24,1.22,2.2,2.2,0,0,0,1.33.8h.35a1.88,1.88,0,0,0,1.85-1.36c.59-2.55-1-4.12-1.92-5.06Z" transform="translate(116.96 -300.95)"/><path id="Path_102" data-name="Path 102" class="cls-20" d="M492.63,424.13l-.1-.1a3.43,3.43,0,0,1-1.22-2.3,2.93,2.93,0,0,1,1.29-2,1.58,1.58,0,0,0,.25-2.23,2,2,0,0,0-.25-.25,2.22,2.22,0,0,0-1.29-.45h0a2.11,2.11,0,0,0-1.29.45,6.12,6.12,0,0,0-2.54,4.26,6.22,6.22,0,0,0,2.16,4.67l.1.1c.84.84,1.26,1.29,1.05,2.16a1.4,1.4,0,0,0,.21,1.19,2,2,0,0,0,1.32.83h.35a1.85,1.85,0,0,0,1.88-1.36C495.14,426.65,493.58,425.07,492.63,424.13Z" transform="translate(116.96 -300.95)"/><path id="Path_103" data-name="Path 103" class="cls-20" d="M501,433.44H476.32a2,2,0,0,0-2,2h0v5.26a12.85,12.85,0,0,0,4.12,9.41H475a1.68,1.68,0,0,0-1.67,1.68,1.69,1.69,0,0,0,1.67,1.67h24.33a1.68,1.68,0,0,0,1.68-1.67,1.72,1.72,0,0,0-1.68-1.68h-3.55a12.31,12.31,0,0,0,3.27-4.81h2a5.88,5.88,0,0,0,5.89-5.87v0A5.94,5.94,0,0,0,501,433.44Zm0,8.44h-1.15c0-.39.07-.8.07-1.22v-3.87H501a2.55,2.55,0,0,1,0,5.09Z" transform="translate(116.96 -300.95)"/></g></g><g id="Club_-_Sauna" data-name="Club - Sauna"><path id="Path_104" data-name="Path 104" class="cls-19" d="M84.88,461.29H47.61a7.44,7.44,0,0,1-7.43-7.47,6.51,6.51,0,0,1,.08-1.07l5.68-37.44A7.4,7.4,0,0,1,53.26,409H90.53A7.46,7.46,0,0,1,98,416.47a7.59,7.59,0,0,1-.08,1.07L92.24,455A7.45,7.45,0,0,1,84.88,461.29Z" transform="translate(116.96 -300.95)"/><g id="Group_12" data-name="Group 12"><path id="Path_105" data-name="Path 105" class="cls-20" d="M62.29,432.71a.84.84,0,0,0-.62.28c-2.06,2.05-2.13,4.6-.25,7l.07.1a2.72,2.72,0,0,1,.91,2.44.89.89,0,0,0,.66,1h.21a.83.83,0,0,0,.84-.7,4.61,4.61,0,0,0-1.22-3.9l-.07-.07c-1.36-1.7-1.33-3.24.1-4.67a.84.84,0,0,0,0-1.19l0,0h0A1,1,0,0,0,62.29,432.71Z" transform="translate(116.96 -300.95)"/><path id="Path_106" data-name="Path 106" class="cls-20" d="M69.23,432.71a.86.86,0,0,0-.63.28c-2,2.05-2.12,4.6-.21,7l.07.1a2.8,2.8,0,0,1,.88,2.44.88.88,0,0,0,.66,1h.21a.81.81,0,0,0,.83-.7,4.57,4.57,0,0,0-1.22-3.9l-.07-.07c-1.36-1.7-1.32-3.24.1-4.67a.82.82,0,0,0,.08-1.17h0l0,0A1.24,1.24,0,0,0,69.23,432.71Z" transform="translate(116.96 -300.95)"/><path id="Path_107" data-name="Path 107" class="cls-20" d="M76.2,432.71a.84.84,0,0,0-.62.28c-2.06,2.05-2.13,4.6-.21,7l.07.1a2.79,2.79,0,0,1,.87,2.44.88.88,0,0,0,.68,1h.19a.88.88,0,0,0,.87-.7,4.49,4.49,0,0,0-1.25-3.9l-.07-.07c-1.36-1.7-1.33-3.24.1-4.67a.84.84,0,0,0,0-1.19l0,0h0A.87.87,0,0,0,76.2,432.71Z" transform="translate(116.96 -300.95)"/><path id="Path_108" data-name="Path 108" class="cls-20" d="M69.09,416.88a2.16,2.16,0,0,0-1.32.42L51.83,429.74a2.7,2.7,0,0,0-1,2.17v18.9a2.61,2.61,0,0,0,2.61,2.61H84.74a2.61,2.61,0,0,0,2.62-2.61h0v-18.9a2.74,2.74,0,0,0-1-2.16L70.38,417.33A2,2,0,0,0,69.09,416.88ZM53.44,450.77V431.91l0-.1,15.62-12.18L84.71,431.8a.1.1,0,0,1,0,.1v18.9H75.61v-2.3h-13v2.3H53.44Z" transform="translate(116.96 -300.95)"/></g></g><g id="Club_-_Shoe_Lockers" data-name="Club - Shoe Lockers"><path id="Path_109" data-name="Path 109" class="cls-17" d="M205.06,461.29H167.82a7.45,7.45,0,0,1-7.44-7.47,9.81,9.81,0,0,1,.08-1.07l5.66-37.44a7.43,7.43,0,0,1,7.36-6.31h37.26a7.46,7.46,0,0,1,7.44,7.47,7.59,7.59,0,0,1-.08,1.07L212.45,455A7.51,7.51,0,0,1,205.06,461.29Z" transform="translate(116.96 -300.95)"/><g id="Group_13" data-name="Group 13"><path id="Path_110" data-name="Path 110" class="cls-18" d="M171,419.43v12.65h17.23V416.85H173.58A2.63,2.63,0,0,0,171,419.43Zm4.22,3.2a1.82,1.82,0,1,1-1.81,1.82h0A1.85,1.85,0,0,1,175.18,422.63Z" transform="translate(116.96 -300.95)"/><path id="Path_111" data-name="Path 111" class="cls-18" d="M171,447a2.66,2.66,0,0,0,2.62,2.61h2.23v2.09a1.75,1.75,0,0,0,1.74,1.75h.35a1.75,1.75,0,0,0,1.74-1.75h0v-2.09h8.55V434.35H171Zm4.22-6.8a1.81,1.81,0,1,1-1.81,1.81,1.81,1.81,0,0,1,1.81-1.81Z" transform="translate(116.96 -300.95)"/><path id="Path_112" data-name="Path 112" class="cls-18" d="M205,416.85H190.38v15.23H207.6V419.43A2.61,2.61,0,0,0,205,416.85Zm-10.43,9.41a1.82,1.82,0,0,1,0-3.63,1.82,1.82,0,0,1,1.81,1.82h0A1.81,1.81,0,0,1,194.56,426.26Z" transform="translate(116.96 -300.95)"/><path id="Path_113" data-name="Path 113" class="cls-18" d="M190.35,449.58h8.54v2.09a1.75,1.75,0,0,0,1.74,1.75H201a1.75,1.75,0,0,0,1.74-1.75h0v-2.09H205a2.65,2.65,0,0,0,2.62-2.61V434.35H190.35Zm4.21-9.41a1.81,1.81,0,1,1-1.81,1.81,1.81,1.81,0,0,1,1.81-1.81Z" transform="translate(116.96 -300.95)"/></g></g><g id="Club_-_Steam" data-name="Club - Steam"><path id="Path_114" data-name="Path 114" class="cls-19" d="M145.22,461.29H108a7.44,7.44,0,0,1-7.43-7.47,6.51,6.51,0,0,1,.08-1.07l5.65-37.44a7.47,7.47,0,0,1,7.36-6.31H150.9a7.46,7.46,0,0,1,7.44,7.47,7.59,7.59,0,0,1-.08,1.07L152.61,455A7.48,7.48,0,0,1,145.22,461.29Z" transform="translate(116.96 -300.95)"/><g id="Group_14" data-name="Group 14"><path id="Path_115" data-name="Path 115" class="cls-20" d="M129.43,416.88a2.19,2.19,0,0,0-1.33.42l-15.9,12.41a2.68,2.68,0,0,0-1,2.16v18.9a2.61,2.61,0,0,0,2.61,2.61h31.35a2.61,2.61,0,0,0,2.61-2.61h0V431.91a2.74,2.74,0,0,0-1-2.16l-15.93-12.42A2,2,0,0,0,129.43,416.88Zm-15.66,33.89V431.91l0-.1,15.62-12.18,15.62,12.17a.19.19,0,0,1,0,.1v18.9H136v-2.3H123v2.3h-9.18Z" transform="translate(116.96 -300.95)"/><path id="Path_116" data-name="Path 116" class="cls-20" d="M136.12,429a.59.59,0,0,0-.27,1.11h0a2.27,2.27,0,0,1-1,4.32h-.38a.64.64,0,0,0-.35-.1.67.67,0,0,0-.52.28.62.62,0,0,0,.2.84,2.73,2.73,0,0,1,1.36,2.47,2.9,2.9,0,0,1-2.92,2.89,2.85,2.85,0,0,1-1.12-.2l-.21,0a.63.63,0,0,0-.56.35.55.55,0,0,0,.18.7,2.42,2.42,0,0,1-1.29,3.17,2.19,2.19,0,0,1-.94.18,2.57,2.57,0,0,1-2.13-1.22,3.6,3.6,0,0,0,3.17-3.63.59.59,0,0,0-.58-.59h0a.61.61,0,0,0-.59.59,2.45,2.45,0,0,1-4.89,0h0a3,3,0,0,1,.1-.73,6.17,6.17,0,0,0,.74.07,4,4,0,0,0,1.64-.39.6.6,0,0,0,.27-.81.62.62,0,0,0-.55-.34l-.28.07a2.28,2.28,0,0,1-1.08.25,2.44,2.44,0,0,1,0-4.88,2.54,2.54,0,0,1,1,.21.67.67,0,0,0,.24.07.62.62,0,0,0,.62-.6.6.6,0,0,0-.34-.55,3.63,3.63,0,0,0-4.81,1.77,4.38,4.38,0,0,0-.35,1.5,3.67,3.67,0,0,0,1.81,3.14,3.43,3.43,0,0,0-.21,1.19,3.66,3.66,0,0,0,2.76,3.55,3.64,3.64,0,0,0,7.11-1.15c0-.17,0-.35,0-.52h.38a4.13,4.13,0,0,0,3.39-6.49,3.42,3.42,0,0,0,2.59-4.08v-.07a3.55,3.55,0,0,0-1.88-2.34Z" transform="translate(116.96 -300.95)"/><path id="Path_117" data-name="Path 117" class="cls-20" d="M129.46,432.15a.68.68,0,0,0-.59.42.62.62,0,0,0,.38.77h0a1.51,1.51,0,0,1,1.15,1.53,1.61,1.61,0,0,1-1.57,1.64h-.06a1.68,1.68,0,0,1-1.6-1.29.64.64,0,0,0-.6-.49h-.1a.62.62,0,0,0-.45.73h0a2.84,2.84,0,0,0,3.41,2.13h0a2.8,2.8,0,0,0,.21-5.4Z" transform="translate(116.96 -300.95)"/></g></g><g id="Club_-_Wi_Fi" data-name="Club - Wi Fi"><path id="Path_127" data-name="Path 127" class="cls-19" d="M566.92,461.29H529.65a7.45,7.45,0,0,1-7.44-7.47,7.82,7.82,0,0,1,.08-1.07L528,415.31a7.43,7.43,0,0,1,7.35-6.31H572.6a7.46,7.46,0,0,1,7.44,7.47,7.59,7.59,0,0,1-.08,1.07L574.31,455A7.48,7.48,0,0,1,566.92,461.29Z" transform="translate(116.96 -300.95)"/><g id="Group_17" data-name="Group 17"><path id="Path_128" data-name="Path 128" class="cls-20" d="M569,428.52a25.17,25.17,0,0,0-35.77,0,1.39,1.39,0,0,0,0,2h0l0,0,2,1.95a1.38,1.38,0,0,0,1.95,0h0l0,0a19.66,19.66,0,0,1,27.81,0h0l0,0a1.38,1.38,0,0,0,2,0h0l0,0,2-1.95a1.28,1.28,0,0,0,.42-1A1,1,0,0,0,569,428.52Z" transform="translate(116.96 -300.95)"/><path id="Path_129" data-name="Path 129" class="cls-20" d="M551.13,432.33a13.67,13.67,0,0,0-9.84,4.07,1.39,1.39,0,0,0,0,2h0a0,0,0,0,0,0,0h0l2,1.95a1.38,1.38,0,0,0,2,0h0l0,0a8.35,8.35,0,0,1,5.93-2.37,8.9,8.9,0,0,1,5.92,2.37,1.38,1.38,0,0,0,1.95,0h0l0,0,1.95-1.95a1.38,1.38,0,0,0,0-1.95h0a0,0,0,0,0,0,0h0A13.78,13.78,0,0,0,551.13,432.33Z" transform="translate(116.96 -300.95)"/><circle id="Ellipse_3" data-name="Ellipse 3" class="cls-20" cx="668.09" cy="145.45" r="2.82"/></g></g><g id="Sauna" class="cls-2"><text class="cls-5" transform="translate(174.67 172)">Sauna</text></g><g id="Steam_Room" data-name="Steam Room" class="cls-2"><text class="cls-5" transform="translate(224.39 172)"><tspan class="cls-13">St</tspan><tspan x="7.19" y="0">eam </tspan><tspan class="cls-21" x="23.71" y="0">R</tspan><tspan class="cls-8" x="28.38" y="0">oom</tspan></text></g><g id="Shoe_Locker_Rental" data-name="Shoe Locker Rental" class="cls-2"><text class="cls-5" transform="translate(284.8 172)">Shoe <tspan class="cls-6" x="18.97" y="0">L</tspan><tspan class="cls-8" x="22.89" y="0">oc</tspan><tspan class="cls-16" x="30.81" y="0">k</tspan><tspan x="34.5" y="0">er</tspan></text><text class="cls-5" transform="translate(294.41 183)"><tspan class="cls-11">R</tspan><tspan x="4.67" y="0">e</tspan><tspan class="cls-22" x="9.01" y="0">n</tspan><tspan class="cls-23" x="13.33" y="0">t</tspan><tspan x="16.2" y="0">al</tspan></text></g><g id="Swimming_Pool" data-name="Swimming Pool" class="cls-2"><text class="cls-5" transform="translate(346.48 172)"><tspan class="cls-24">S</tspan><tspan x="4.16" y="0">wimming</tspan></text><text class="cls-5" transform="translate(356.98 183)"><tspan class="cls-6">P</tspan><tspan x="4.39" y="0">ool</tspan></text></g><g id="Jacuzzi" class="cls-2"><text class="cls-5" transform="translate(415.18 172)">Jacuzzi</text></g><g id="Lounge" class="cls-2"><text class="cls-5" transform="translate(473.19 172)"><tspan class="cls-6">L</tspan><tspan x="3.92" y="0">ounge</tspan></text></g><g id="Charging_Station" data-name="Charging Station" class="cls-2"><text class="cls-5" transform="translate(530.21 172)">Cha<tspan class="cls-12" x="12.98" y="0">r</tspan><tspan x="15.76" y="0">ging</tspan></text><text class="cls-5" transform="translate(533.02 183)"><tspan class="cls-13">St</tspan><tspan x="7.19" y="0">ation</tspan></text></g><g id="Refreshments" class="cls-2"><text class="cls-5" transform="translate(581.1 172)"><tspan class="cls-11">R</tspan><tspan class="cls-6" x="4.67" y="0">e</tspan><tspan class="cls-23" x="8.86" y="0">f</tspan><tspan class="cls-9" x="11.8" y="0">r</tspan><tspan x="14.58" y="0">eshme</tspan><tspan class="cls-22" x="37.77" y="0">n</tspan><tspan x="42.09" y="0">ts</tspan></text></g><g id="Wi_Fi" data-name="Wi Fi" class="cls-2"><text class="cls-5" transform="translate(659.82 172)">Wi Fi</text></g></g></svg>