<svg xmlns="http://www.w3.org/2000/svg" viewBox="0 0 233 70"><defs><style>.cls-1{fill:#fff;}.cls-2{fill:none;stroke:#9f9e9d;}.cls-3{fill:#552e90;}.cls-4{fill:#dd1e32;}.cls-5,.cls-6,.cls-8{isolation:isolate;}.cls-6{font-size:10px;fill:#3c3c3b;font-family:SohoGothicPro-Regular, Soho Gothic Pro;}.cls-7{letter-spacing:-0.01em;}.cls-8{font-size:12px;fill:#c82031;font-family:SohoGothicPro-Bold, Soho Gothic Pro;font-weight:700;}</style></defs><title>dual_id</title><g id="Layer_2" data-name="Layer 2"><g id="Layer_1-2" data-name="Layer 1"><g id="access_button_dual" data-name="access button dual"><rect id="Rectangle_15-7" data-name="Rectangle 15-7" class="cls-1" width="233" height="70" rx="13" ry="13"/><line id="Line_2" data-name="Line 2" class="cls-2" x1="69" y1="10" x2="69" y2="60"/><g id="Layer_2-2" data-name="Layer 2"><g id="Layer_1-3" data-name="Layer 1"><path id="Path_158" data-name="Path 158" class="cls-3" d="M21.51,36.71,23,41.05l-3.73-2.7-3.7,2.7L17,36.71,13.25,34H17.8l1.42-4.37L20.62,34h4.6ZM30.63,34l-2-6.18H19.82L21.73,22h-6.5L11.69,32.87,9.74,31.46,7.83,37.3,14.25,42,9,45.84l5.24,3.81,9.34-6.75.61,1.9L29.4,41,27.16,34Z"/><path id="Path_159" data-name="Path 159" class="cls-3" d="M31.06,28.21h-.44v-.37H32v.37H31.5v1.71h-.44Z"/><path id="Path_160" data-name="Path 160" class="cls-3" d="M33.8,28.49l-.48,1.43h-.15l-.46-1.43v1.43h-.44V27.84h.57l.4,1.25.41-1.25h.55v2.08h-.4Z"/></g></g><g id="Logo_FF" data-name="Logo FF"><path id="Path_44" data-name="Path 44" class="cls-4" d="M50.11,42,52.54,25.5h-10l-.88,5.7h4L44.06,42H40l-.87,5.7H53.25l.86-5.7ZM54,25.5l-.87,5.7h8L62,25.5ZM52,39H56.2L57,33.53H52.79L52,39Z"/><path id="Path_45" data-name="Path 45" class="cls-4" d="M38.15,27.42h-.37l.32-1.57h-.56l.05-.35H39l-.06.35h-.53Z"/><path id="Path_46" data-name="Path 46" class="cls-4" d="M40.68,26.22l-.56,1h-.38l-.19-1-.27,1.2H38.9l.47-1.92h.37L40,26.84l.69-1.34h.43l-.27,1.92h-.35Z"/></g><g id="Dual_Access_All_Indonesia" data-name="Dual Access All Indonesia" class="cls-5"><text class="cls-6" transform="translate(75 31)">Dual <tspan class="cls-7" x="22.61" y="0">Acc</tspan><tspan x="38.33" y="0">ess</tspan></text><text class="cls-6" transform="translate(75 46)">All Indonesia</text></g><g id="_IDR_275_000" data-name=" IDR 275 000" class="cls-5"><text class="cls-8" transform="translate(140 39)">+ IDR 275,000</text></g></g></g></g></svg>