<svg xmlns="http://www.w3.org/2000/svg" viewBox="0 0 164 167"><defs><style>.cls-1,.cls-7{fill:#fff;}.cls-2,.cls-3,.cls-4{isolation:isolate;}.cls-3{font-size:16px;font-family:SohoGothicPro-Bold, Soho Gothic Pro;font-weight:700;}.cls-3,.cls-8{fill:#c82031;}.cls-4{font-size:12px;fill:#3c3c3b;font-family:SohoGothicPro-Regular, Soho Gothic Pro;}.cls-5{letter-spacing:-0.02em;}.cls-6{letter-spacing:-0.01em;}.cls-7{stroke:#c82031;stroke-miterlimit:10;stroke-width:2px;}</style></defs><title>FGT</title><g id="Layer_2" data-name="Layer 2"><g id="Layer_1-2" data-name="Layer 1"><g id="Group_35" data-name="Group 35"><rect id="Rectangle_12-2" data-name="Rectangle 12-2" class="cls-1" width="164" height="167" rx="13" ry="13"/><g id="_IDR_75_000_Unlimited_Freestyle_Classes" data-name=" IDR 75 000 Unlimited Freestyle Classes" class="cls-2"><text class="cls-3" transform="translate(29.09 115)">+ IDR 75,000</text><text class="cls-4" transform="translate(55.22 134)">Unlimi<tspan class="cls-5" x="35.02" y="0">t</tspan><tspan x="39.67" y="0">ed</tspan></text><text class="cls-4" transform="translate(34.43 152)">F<tspan class="cls-6" x="6.84" y="0">r</tspan><tspan x="11.17" y="0">eestyle Classes</tspan></text></g><g id="Club_-_Freestyle" data-name="Club - Freestyle"><path id="Path_148" data-name="Path 148" class="cls-7" d="M103.79,83H52.48A10.26,10.26,0,0,1,42.24,72.72a10.42,10.42,0,0,1,.11-1.48l7.82-51.55A10.22,10.22,0,0,1,60.3,11h51.31a10.26,10.26,0,0,1,10.24,10.28,10.42,10.42,0,0,1-.11,1.48l-7.82,51.55A10.23,10.23,0,0,1,103.79,83Z"/><g id="Group_24" data-name="Group 24"><path id="Path_149" data-name="Path 149" class="cls-8" d="M94.67,25.69H69.42L56.85,47,69.42,68.31H94.67L107.25,47Zm-1.3,39.07a1.27,1.27,0,0,1-1.2.67H72a1.37,1.37,0,0,1-1.2-.67l-10.08-17a1.22,1.22,0,0,1,0-1.39l10.08-17a1.28,1.28,0,0,1,1.2-.67H92.17a1.35,1.35,0,0,1,1.2.67l10.08,17a1.22,1.22,0,0,1,0,1.39Z"/><path id="Path_150" data-name="Path 150" class="cls-8" d="M91.31,31.35H72.78L63.52,47l9.26,15.65H91.31L100.57,47ZM84.83,55.83H74l.63-4.32h3.07l1.25-8.06H75.85l.63-4.32h7.73L82.33,51.51h3.08Zm2.26-6.53H83.82l.62-4.08h3.27Zm3.83-5.85H84.73l.68-4.32H91.6Z"/></g></g></g></g></g></svg>