<svg xmlns="http://www.w3.org/2000/svg" viewBox="0 0 164 167"><defs><style>.cls-1,.cls-6{fill:#fff;}.cls-2,.cls-3,.cls-4{isolation:isolate;}.cls-3{font-size:16px;font-family:SohoGothicPro-Bold, Soho Gothic Pro;font-weight:700;}.cls-3,.cls-7{fill:#c82031;}.cls-4{font-size:12px;fill:#3c3c3b;font-family:SohoGothicPro-Regular, Soho Gothic Pro;}.cls-5{letter-spacing:-0.02em;}.cls-6{stroke:#c82031;stroke-miterlimit:10;stroke-width:2px;}</style></defs><title>M_B</title><g id="Layer_2" data-name="Layer 2"><g id="Layer_1-2" data-name="Layer 1"><g id="Group_36" data-name="Group 36"><rect id="Rectangle_13-2" data-name="Rectangle 13-2" class="cls-1" width="164" height="167" rx="13" ry="13"/><g id="_IDR_75_000_Unlimited_Mind_Body_Classes" data-name=" IDR 75 000 Unlimited Mind Body Classes" class="cls-2"><text class="cls-3" transform="translate(29.09 115)">+ IDR 75,000</text><text class="cls-4" transform="translate(55.22 134)">Unlimi<tspan class="cls-5" x="35.02" y="0">t</tspan><tspan x="39.67" y="0">ed</tspan></text><text class="cls-4" transform="translate(25.17 152)"><tspan xml:space="preserve">Mind &amp; Body  Classes</tspan></text></g><g id="Club_-_Yoga" data-name="Club - Yoga"><path id="Path_156" data-name="Path 156" class="cls-6" d="M103.7,83H52.44A10.26,10.26,0,0,1,42.2,72.67a10.42,10.42,0,0,1,.11-1.48l7.77-51.5A10.24,10.24,0,0,1,60.21,11h51.32a10.26,10.26,0,0,1,10.23,10.29,10.39,10.39,0,0,1-.11,1.47l-7.77,51.55A10.32,10.32,0,0,1,103.7,83Z"/><g id="Group_26" data-name="Group 26"><circle id="Ellipse_11" data-name="Ellipse 11" class="cls-7" cx="81.96" cy="29.67" r="7.92"/><path id="Path_157" data-name="Path 157" class="cls-7" d="M100.68,57.42c-2.26-.24-3.6-2.64-5.62-6.58C92.76,46.23,89.49,40,82,40s-10.75,6.24-13.1,10.85c-2,3.94-3.36,6.34-5.62,6.58A3.33,3.33,0,0,0,63.63,64H64L65,63.9a4.86,4.86,0,0,0-.29,3.21c1,5.38,13.73,5.09,17.38,5.09H86c2.3-.24,2.64-1.25,2.84-2.64a2.42,2.42,0,0,0-.53-2A1.66,1.66,0,0,0,86.86,67h-.58a45.46,45.46,0,0,1-11.71-.34,1.14,1.14,0,0,1-1-1.29h0a1.08,1.08,0,0,1,1.22-.92h0a46.48,46.48,0,0,0,11.24.38l.57,0a4,4,0,0,1,3.27,1.25A4.67,4.67,0,0,1,91,69.89a6,6,0,0,1-.63,2c4.23-.53,8.45-1.73,9-4.7A5.06,5.06,0,0,0,99.14,64l.86.14h.34a3.31,3.31,0,0,0,3.21-3.4A3.37,3.37,0,0,0,100.68,57.42ZM68.9,62.07c2.59-1.92,4.23-5,5.62-7.68L75,62.22A55.49,55.49,0,0,0,68.9,62.07Zm20.45.15.53-7c1.3,2.44,2.83,5.08,5.18,6.86A32,32,0,0,0,89.35,62.22Z"/></g></g></g></g></g></svg>