<svg xmlns="http://www.w3.org/2000/svg" viewBox="0 0 164 167"><defs><style>.cls-1,.cls-7{fill:#fff;}.cls-2,.cls-3,.cls-4{isolation:isolate;}.cls-3{font-size:16px;fill:#3aaa49;font-family:SohoGothicPro-Bold, Soho Gothic Pro;font-weight:700;}.cls-4{font-size:12px;fill:#3c3c3b;font-family:SohoGothicPro-Regular, Soho Gothic Pro;}.cls-5{letter-spacing:-0.02em;}.cls-6{letter-spacing:-0.01em;}.cls-7{stroke:#c82031;stroke-miterlimit:10;stroke-width:2px;}.cls-8{fill:#c82031;}</style></defs><title>All_GF</title><g id="Layer_2" data-name="Layer 2"><g id="Layer_1-2" data-name="Layer 1"><g id="Group_37" data-name="Group 37"><rect id="Rectangle_14-2" data-name="Rectangle 14-2" class="cls-1" width="164" height="167" rx="13" ry="13"/><g id="_IDR_150_000_Unlimited_Group_Fitness_Classes" data-name=" IDR 150 000 Unlimited Group Fitness Classes" class="cls-2"><text class="cls-3" transform="translate(23.68 115)">+ IDR 150,000</text><text class="cls-4" transform="translate(55.22 134)">Unlimi<tspan class="cls-5" x="35.02" y="0">t</tspan><tspan x="39.67" y="0">ed</tspan></text><text class="cls-4" transform="translate(22.73 152)">G<tspan class="cls-6" x="7.61" y="0">r</tspan><tspan x="11.94" y="0">oup Fitness Classes</tspan></text></g><g id="Club_-_Group_Fitness" data-name="Club - Group Fitness"><path id="Path_151" data-name="Path 151" class="cls-7" d="M103.22,83H52A10.26,10.26,0,0,1,41.72,72.72a10.42,10.42,0,0,1,.11-1.48l7.78-51.55A10.22,10.22,0,0,1,59.73,11h51.32a10.26,10.26,0,0,1,10.23,10.29,10.39,10.39,0,0,1-.11,1.47L113.4,74.31A10.31,10.31,0,0,1,103.22,83Z"/><g id="Group_25" data-name="Group 25"><circle id="Ellipse_9" data-name="Ellipse 9" class="cls-8" cx="61.22" cy="36.54" r="4.94"/><path id="Path_152" data-name="Path 152" class="cls-8" d="M106.58,67.45c-.72-3.07-2.64-10.9-3.26-13.35a7,7,0,0,1-.24-1.44c-.29-3.74-1.59-12.91-7.3-19.15h0l-.1-.14-.05,0h0l-.91-1h0A42.3,42.3,0,0,0,83.3,23.58a2.59,2.59,0,0,0-3.41,1,2.5,2.5,0,0,0,1,3.32,0,0,0,0,1,.05,0h0A36,36,0,0,1,92,36.73l-4.94,4.61h0l-.1.1h0l-1.1,1.05h0c-2.21,2.16-4.52,5.32-3.27,8.06.91,2.11,3.22,2.64,5.71,2.64A19.72,19.72,0,0,0,91.17,53h0A8.63,8.63,0,0,1,91,55.21l-3,12.19a2.5,2.5,0,0,0,1.68,3.07,2.41,2.41,0,0,0,3-1.63l0,0s0,0,0-.1l3.5-14.35h2l3.5,14.35a2.44,2.44,0,0,0,2.92,1.84h.06s0,0,.1,0a2.41,2.41,0,0,0,1.71-2.93ZM87.48,48.3a14.86,14.86,0,0,1,2.11-2.5,18.13,18.13,0,0,1,.77,2.4,14.59,14.59,0,0,1-2.88.1Z"/><circle id="Ellipse_10" data-name="Ellipse 10" class="cls-8" cx="81.53" cy="36.58" r="4.94"/><path id="Path_153" data-name="Path 153" class="cls-8" d="M85.46,66.87l.39-1.34c-.82-3.31-2-8.21-2.64-10.66a6.32,6.32,0,0,1-3-3.21c-.81-1.68-1.05-4.28,1-7.54a7.55,7.55,0,0,1-7.2-7.58,7.81,7.81,0,0,1,1-3.7l-.48-.53h0A42.08,42.08,0,0,0,63,23.63a2.58,2.58,0,0,0-3.41,1,2.48,2.48,0,0,0,1,3.31.06.06,0,0,1,.05,0h0a35.85,35.85,0,0,1,11.09,8.79l-5,4.61h0l-.1.1h0l-1.1,1h0c-2.21,2.16-4.51,5.33-3.26,8.07.91,2.11,3.21,2.64,5.71,2.64a19.82,19.82,0,0,0,2.88-.2,3.78,3.78,0,0,1,0,.67,10,10,0,0,1-.1,1.1L67.7,67.54a2.51,2.51,0,0,0,1.68,3.08,2.43,2.43,0,0,0,3-1.64v0s0,0,0-.1L76,54.49h2l3.5,14.35a2.43,2.43,0,0,0,2.92,1.83h0s0,0,.1,0a2,2,0,0,0,1-.62A6.85,6.85,0,0,1,85.46,66.87ZM67.17,48.3a14.47,14.47,0,0,1,2.12-2.5,19.69,19.69,0,0,1,.76,2.4A14.59,14.59,0,0,1,67.17,48.3Z"/><path id="Path_154" data-name="Path 154" class="cls-8" d="M80.23,41.34a27.79,27.79,0,0,0-3.41-6.24,4.88,4.88,0,0,0,3.41,6.24Z"/><path id="Path_155" data-name="Path 155" class="cls-8" d="M82.29,48.49a3.75,3.75,0,0,0,.29,2C82.53,49.93,82.39,49.26,82.29,48.49Z"/></g></g></g></g></g></svg>