<svg xmlns="http://www.w3.org/2000/svg" viewBox="0 0 708 206"><defs><style>.cls-1{fill:#3c3c3b;}.cls-2,.cls-3,.cls-4,.cls-5{isolation:isolate;}.cls-3{font-size:20px;}.cls-17,.cls-19,.cls-3,.cls-4,.cls-5{fill:#fff;}.cls-3,.cls-4{font-family:SohoGothicPro-Bold, Soho Gothic Pro;font-weight:700;}.cls-4{font-size:16px;}.cls-5{font-size:7.5px;font-family:SohoGothicPro-Italic, Soho Gothic Pro;font-style:italic;}.cls-6{letter-spacing:-0.02em;}.cls-7{letter-spacing:-0.04em;}.cls-8{letter-spacing:0em;}.cls-9{letter-spacing:0em;}.cls-10{letter-spacing:-0.03em;}.cls-11{letter-spacing:-0.01em;}.cls-12{letter-spacing:-0.01em;}.cls-13{letter-spacing:-0.01em;}.cls-14{letter-spacing:-0.08em;}.cls-15{letter-spacing:-0.02em;}.cls-16{letter-spacing:-0.03em;}.cls-17{stroke:#c72031;}.cls-17,.cls-19{stroke-miterlimit:10;stroke-width:2px;}.cls-18{fill:#c72031;}.cls-19{stroke:#c82031;}.cls-20{fill:#c82031;}.cls-21{letter-spacing:-0.02em;}.cls-22{letter-spacing:-0.02em;}.cls-23{letter-spacing:-0.01em;}.cls-24{letter-spacing:-0.03em;}</style></defs><title>base_selected</title><g id="Layer_2" data-name="Layer 2"><g id="Layer_1-2" data-name="Layer 1"><g id="Group_33" data-name="Group 33"><rect id="Rectangle_10-2" data-name="Rectangle 10-2" class="cls-1" width="708" height="206" rx="14" ry="14"/><g id="IDR_475_000_Gym_Membership" data-name="IDR 475 000 Gym Membership" class="cls-2"><text class="cls-3" transform="translate(18.55 78)">IDR 475,000</text><text class="cls-4" transform="translate(64.57 103)">Gym</text><text class="cls-4" transform="translate(31.74 127)">Membership</text></g><g id="Pin-Loaded_Weights" data-name="Pin-Loaded Weights" class="cls-2"><text class="cls-5" transform="translate(192.25 84)">Pin-<tspan class="cls-6" x="13.9" y="0">L</tspan><tspan x="17.81" y="0">oaded</tspan></text><text class="cls-5" transform="translate(198.03 95)"><tspan class="cls-7">W</tspan><tspan x="6.45" y="0">eig</tspan><tspan class="cls-6" x="17.05" y="0">h</tspan><tspan class="cls-8" x="21.37" y="0">ts</tspan></text></g><g id="Free_Weights" data-name="Free Weights" class="cls-2"><text class="cls-5" transform="translate(253.45 84)">F<tspan class="cls-9" x="4.27" y="0">r</tspan><tspan x="7.06" y="0">ee </tspan><tspan class="cls-7" x="17.17" y="0">W</tspan><tspan x="23.63" y="0">eig</tspan><tspan class="cls-6" x="34.22" y="0">h</tspan><tspan class="cls-8" x="38.54" y="0">ts</tspan></text></g><g id="Boxing_Area" data-name="Boxing Area" class="cls-2"><text class="cls-5" transform="translate(315.22 84)">B<tspan class="cls-10" x="4.79" y="0">o</tspan><tspan x="8.95" y="0">xing A</tspan><tspan class="cls-9" x="30.1" y="0">r</tspan><tspan x="32.89" y="0">ea</tspan></text></g><g id="Cardio_Entertainment" data-name="Cardio Entertainment" class="cls-2"><text class="cls-5" transform="translate(385.11 84)"><tspan class="cls-11">C</tspan><tspan x="4.06" y="0">a</tspan><tspan class="cls-12" x="8.4" y="0">r</tspan><tspan x="11.18" y="0">dio</tspan></text><text class="cls-5" transform="translate(370.83 95)">E<tspan class="cls-6" x="4.35" y="0">n</tspan><tspan class="cls-13" x="8.67" y="0">t</tspan><tspan x="11.54" y="0">er</tspan><tspan class="cls-13" x="18.7" y="0">t</tspan><tspan x="21.58" y="0">ainme</tspan><tspan class="cls-6" x="43.06" y="0">n</tspan><tspan class="cls-8" x="47.38" y="0">t</tspan></text></g><g id="Towel_Service" data-name="Towel Service" class="cls-2"><text class="cls-5" transform="translate(433.38 84)"><tspan class="cls-14">T</tspan><tspan class="cls-6" x="3.94" y="0">o</tspan><tspan class="cls-11" x="8.13" y="0">w</tspan><tspan x="14.34" y="0">el Servi</tspan><tspan class="cls-15" x="39.47" y="0">c</tspan><tspan class="cls-8" x="42.9" y="0">e</tspan></text></g><g id="Changing_Rooms" data-name="Changing Rooms" class="cls-2"><text class="cls-5" transform="translate(499.74 84)">Changing</text><text class="cls-5" transform="translate(504.31 95)"><tspan class="cls-11">R</tspan><tspan x="4.67" y="0">ooms</tspan></text></g><g id="Lockers" class="cls-2"><text class="cls-5" transform="translate(564.85 84)"><tspan class="cls-6">L</tspan><tspan x="3.92" y="0">oc</tspan><tspan class="cls-16" x="11.83" y="0">k</tspan><tspan x="15.52" y="0">ers</tspan></text></g><g id="Toiletries" class="cls-2"><text class="cls-5" transform="translate(622.03 84)"><tspan class="cls-14">T</tspan><tspan x="3.94" y="0">oil</tspan><tspan class="cls-6" x="12.11" y="0">e</tspan><tspan class="cls-8" x="16.3" y="0">tries</tspan></text></g><g id="Club_-_Boxing" data-name="Club - Boxing"><path id="Path_52" data-name="Path 52" class="cls-17" d="M352,72.29H314.74a7.45,7.45,0,0,1-7.43-7.47,6.43,6.43,0,0,1,.08-1.07L313,26.31A7.47,7.47,0,0,1,320.4,20h37.26a7.45,7.45,0,0,1,7.44,7.47,7.59,7.59,0,0,1-.08,1.07L359.33,66A7.41,7.41,0,0,1,352,72.29Z"/><g id="Group_1" data-name="Group 1"><path id="Path_53" data-name="Path 53" class="cls-18" d="M343.72,38.58v-.77a2.89,2.89,0,0,0-2.88-2.89h-.4l-3.59-4.71V28.44a.63.63,0,1,0-1.26-.05v1.82L332,34.92h-.45a2.9,2.9,0,0,0-2.9,2.88h0V39h15Zm-10.11-3.66,2.61-3.45,2.65,3.45Z"/><path id="Path_54" data-name="Path 54" class="cls-18" d="M328.69,42.56V56.75h15V42.56Z"/><path id="Path_55" data-name="Path 55" class="cls-18" d="M328.69,60.48v1a2.9,2.9,0,0,0,2.88,2.9h9.25a2.9,2.9,0,0,0,2.9-2.88v0h0V60.27h-15Z"/></g></g><g id="Club_-_Cardio_Entertainment" data-name="Club - Cardio Entertainment"><path id="Path_56" data-name="Path 56" class="cls-17" d="M412.13,72.29H374.85a7.45,7.45,0,0,1-7.43-7.47,7.71,7.71,0,0,1,.08-1.07l5.68-37.44A7.44,7.44,0,0,1,380.54,20h37.27a7.44,7.44,0,0,1,7.43,7.47,6.35,6.35,0,0,1-.08,1.07L419.52,66A7.51,7.51,0,0,1,412.13,72.29Z"/><g id="Group_2" data-name="Group 2"><path id="Path_57" data-name="Path 57" class="cls-18" d="M396.65,40.43,401.18,43l-4.53,2.62-4.54,2.65V37.81Z"/><path id="Path_58" data-name="Path 58" class="cls-18" d="M378,31.29V61a1.17,1.17,0,0,0,1.15,1.16h34.3A1.17,1.17,0,0,0,414.63,61V30.15H379.18A1.15,1.15,0,0,0,378,31.29Zm4.08,1.82h28.31a.83.83,0,0,1,.83.83V52.07a.84.84,0,0,1-.83.84H382.11a.82.82,0,0,1-.8-.84V33.94A.82.82,0,0,1,382.11,33.11Zm2.13,24.82h-2.58a.44.44,0,0,1-.46-.41h0v-1a.44.44,0,0,1,.45-.42h2.59a.41.41,0,0,1,.41.42h0v1A.41.41,0,0,1,384.24,57.93Zm4.15,1.18a2.12,2.12,0,1,1,1.74-2.44,2.13,2.13,0,0,1-1.75,2.45Zm22.41-1.18H392.32a.54.54,0,0,1-.55-.52v-.76a.54.54,0,0,1,.54-.56H410.8a.52.52,0,0,1,.52.52v.77a.5.5,0,0,1-.44.55Z"/><path id="Path_59" data-name="Path 59" class="cls-18" d="M401.18,43l-4.53,2.62-4.54,2.65V37.81l4.54,2.62Z"/><path id="Path_60" data-name="Path 60" class="cls-18" d="M401.18,43l-4.53,2.62-4.54,2.65V37.81l4.54,2.62Z"/></g></g><g id="Club_-_Changing_Rooms" data-name="Club - Changing Rooms"><path id="Path_61" data-name="Path 61" class="cls-19" d="M532.88,72.26H495.61a7.46,7.46,0,0,1-7.44-7.47,7.59,7.59,0,0,1,.08-1.07l5.69-37.41A7.43,7.43,0,0,1,501.3,20h37.26A7.45,7.45,0,0,1,546,27.47a7.59,7.59,0,0,1-.08,1.07L540.27,66A7.51,7.51,0,0,1,532.88,72.26Z"/><g id="Group_3" data-name="Group 3"><path id="Path_62" data-name="Path 62" class="cls-20" d="M528.07,50.23,518,43.92v-.46a.79.79,0,0,1,.45-.73l.1-.07a2.67,2.67,0,0,0,1.53-2.34,3.07,3.07,0,0,0-2.37-2.82,3.31,3.31,0,0,0-3.07.84,2.94,2.94,0,0,0-.87,2.3V41c0,.21.42.38.91.38h.17c.49,0,.91-.17.91-.38v-.35c0-.7.21-1,.9-1.22a1.24,1.24,0,0,1,1.15.28.62.62,0,0,1,.18.55.84.84,0,0,1-.34.6l-.88.6a1.48,1.48,0,0,0-.76,1.42v1.05L506,50.2a2.56,2.56,0,0,0,1.57,4.7h19a2.54,2.54,0,0,0,1.46-4.67Zm-1,2.16a.49.49,0,0,1-.45.35h-19a.45.45,0,0,1-.46-.32.41.41,0,0,1,.21-.49l9.73-6.1,9.8,6.1A.37.37,0,0,1,527.06,52.39Z"/><path id="Path_63" data-name="Path 63" class="cls-20" d="M517.09,64.41a18.3,18.3,0,1,1,18.3-18.3h0v0A18.34,18.34,0,0,1,517.09,64.41Zm0-34.68a16.4,16.4,0,1,0,16.38,16.42v0A16.45,16.45,0,0,0,517.09,29.73Z"/></g></g><g id="Club_-_Free_Weights" data-name="Club - Free Weights"><path id="Path_66" data-name="Path 66" class="cls-19" d="M291.34,72.29H254.1a7.45,7.45,0,0,1-7.44-7.47,7.71,7.71,0,0,1,.08-1.07l5.66-37.44A7.42,7.42,0,0,1,259.75,20H297a7.44,7.44,0,0,1,7.43,7.47,6.35,6.35,0,0,1-.08,1.07L298.73,66A7.48,7.48,0,0,1,291.34,72.29Z"/><g id="Group_5" data-name="Group 5"><path id="Path_67" data-name="Path 67" class="cls-20" d="M293.22,43a.74.74,0,0,0-.63.81v4.74a.65.65,0,0,0,1.26.3.76.76,0,0,0,0-.3V43.78A.74.74,0,0,0,293.22,43Z"/><path id="Path_68" data-name="Path 68" class="cls-20" d="M257.87,43a.74.74,0,0,0-.63.81v4.74a.65.65,0,0,0,1.26.3.76.76,0,0,0,0-.3V43.78A.74.74,0,0,0,257.87,43Z"/><path id="Path_69" data-name="Path 69" class="cls-20" d="M265.61,35.79a2.26,2.26,0,0,0-2.09,2.37V54.09a2.22,2.22,0,0,0,2.09,2.37,2.28,2.28,0,0,0,2.12-2.37v-6H283v6a2.13,2.13,0,0,0,4.22.51,2.18,2.18,0,0,0,0-.51V38.16a2.23,2.23,0,0,0-2.08-2.37A2.29,2.29,0,0,0,283,38.16v6h-15.3v-6A2.27,2.27,0,0,0,265.61,35.79Z"/><path id="Path_70" data-name="Path 70" class="cls-20" d="M290,39h-.21a1.62,1.62,0,0,0-1.6,1.57V51.72a1.59,1.59,0,0,0,1.6,1.57H290a1.61,1.61,0,0,0,1.6-1.57V40.57A1.62,1.62,0,0,0,290,39Z"/><path id="Path_71" data-name="Path 71" class="cls-20" d="M261,39h-.21a1.62,1.62,0,0,0-1.6,1.57V51.72a1.59,1.59,0,0,0,1.6,1.57H261a1.61,1.61,0,0,0,1.6-1.57V40.57A1.6,1.6,0,0,0,261,39Z"/></g></g><g id="Club_-_Lockers" data-name="Club - Lockers"><path id="Path_77" data-name="Path 77" class="cls-19" d="M593.52,72.29H556.25a7.45,7.45,0,0,1-7.43-7.47,6.43,6.43,0,0,1,.08-1.07l5.68-37.44A7.43,7.43,0,0,1,561.94,20h37.27a7.45,7.45,0,0,1,7.43,7.47,6.35,6.35,0,0,1-.08,1.07L600.92,66A7.5,7.5,0,0,1,593.52,72.29Z"/><g id="Group_7" data-name="Group 7"><path id="Path_78" data-name="Path 78" class="cls-20" d="M595.13,29.9H584.57V62.36h10.56a.92.92,0,0,0,.9-.91V30.84A.92.92,0,0,0,595.13,29.9Zm-8.44,15.76h2.38V48h-2.38V45.66Zm6.49,13.21h-5.72a.7.7,0,0,1,0-1.39h5.72a.7.7,0,0,1,0,1.39Zm0-3.55h-5.72a.7.7,0,0,1,0-1.4h5.72a.69.69,0,0,1,.63.76A.7.7,0,0,1,593.18,55.32Zm0-17h-5.72a.7.7,0,0,1-.63-.76.7.7,0,0,1,.63-.64h5.72a.71.71,0,0,1,.63.77A.7.7,0,0,1,593.18,38.34Zm0-3.52h-5.72a.7.7,0,0,1,0-1.4h5.72a.7.7,0,0,1,0,1.4Z"/><path id="Path_79" data-name="Path 79" class="cls-20" d="M572,29.9V62.36h11.47V29.9Zm8.58,29h-5.72a.7.7,0,0,1,0-1.39h5.72a.7.7,0,0,1,0,1.39Zm0-3.55h-5.72a.72.72,0,0,1-.64-.76.71.71,0,0,1,.64-.64h5.72a.7.7,0,0,1,0,1.4ZM574.21,48V45.66h2.34V48Zm6.38-9.69h-5.72a.7.7,0,0,1-.13-1.4h5.85a.7.7,0,0,1,.13,1.4Zm0-3.52h-5.72a.7.7,0,0,1,0-1.4h5.72a.7.7,0,0,1,0,1.4Z"/><path id="Path_80" data-name="Path 80" class="cls-20" d="M560.34,29.9a.93.93,0,0,0-.91.91V61.45a.89.89,0,0,0,.87.91h10.6V29.9Zm1.11,15.76h2.37V48h-2.37ZM568,58.87h-5.72a.7.7,0,0,1,0-1.39H568a.7.7,0,1,1,.13,1.39A.29.29,0,0,1,568,58.87Zm0-3.55h-5.72a.72.72,0,0,1-.64-.76.71.71,0,0,1,.64-.64H568a.7.7,0,0,1,.76.64.72.72,0,0,1-.64.76Zm0-17h-5.72a.7.7,0,0,1-.13-1.4H568a.7.7,0,0,1,.13,1.4Zm0-3.52h-5.72a.7.7,0,0,1,0-1.4H568a.7.7,0,0,1,.13,1.4Z"/></g></g><g id="Club_-_Pin_Loaded" data-name="Club - Pin Loaded"><path id="Path_91" data-name="Path 91" class="cls-19" d="M231.26,72.29H194a7.45,7.45,0,0,1-7.44-7.47,7.71,7.71,0,0,1,.08-1.07l5.69-37.44A7.42,7.42,0,0,1,199.67,20h37.27a7.45,7.45,0,0,1,7.44,7.47,7.59,7.59,0,0,1-.08,1.07L238.61,66A7.4,7.4,0,0,1,231.26,72.29Z"/><g id="Group_9" data-name="Group 9"><path id="Path_92" data-name="Path 92" class="cls-20" d="M223,61.94h-1.64V59.5H209.68v2.44h-1.43A1.31,1.31,0,0,0,207,63.23v1.22h17.26V63.23A1.26,1.26,0,0,0,223,61.94Z"/><path id="Path_93" data-name="Path 93" class="cls-20" d="M227.08,39.45V37.4A3.61,3.61,0,0,0,224.67,34l-3.38-1.22V29.62a1.8,1.8,0,0,0-1.78-1.81h-8a1.8,1.8,0,0,0-1.82,1.79v3.16L206.23,34a3.7,3.7,0,0,0-2.41,3.39v2.05a2.16,2.16,0,0,0-1.74,2.1V48a2.11,2.11,0,0,0,2.1,2.13h1.11A2.14,2.14,0,0,0,207.41,48h0V41.55a2.09,2.09,0,0,0-1.74-2.1V37.4a1.77,1.77,0,0,1,1.15-1.64l2.83-1v16h11.64V34.78l2.75,1a1.7,1.7,0,0,1,1.15,1.64v2.05a2.13,2.13,0,0,0-1.74,2.1V48a2.14,2.14,0,0,0,2.13,2.13h1.08A2.14,2.14,0,0,0,228.78,48V41.55A2.1,2.1,0,0,0,227.08,39.45Z"/><path id="Path_94" data-name="Path 94" class="cls-20" d="M225.75,53H219.2a1.43,1.43,0,0,0-1.43,1.43h0v.07h-4.53v-.07A1.44,1.44,0,0,0,211.81,53h-6.52a1.43,1.43,0,0,0-1.43,1.43h0v1.43a1.44,1.44,0,0,0,1.43,1.43h6.55a1.44,1.44,0,0,0,1.43-1.43h0v-.07h4.53v.07a1.44,1.44,0,0,0,1.43,1.43h6.52a1.44,1.44,0,0,0,1.43-1.43h0V54.41A1.47,1.47,0,0,0,225.75,53Z"/></g></g><g id="Club_-_Toiletries" data-name="Club - Toiletries"><path id="Path_118" data-name="Path 118" class="cls-19" d="M653.64,72.29H616.36a7.45,7.45,0,0,1-7.43-7.47,7.71,7.71,0,0,1,.08-1.07l5.69-37.44A7.42,7.42,0,0,1,622.05,20h37.27a7.44,7.44,0,0,1,7.43,7.47,7.59,7.59,0,0,1-.07,1.07L661,66A7.49,7.49,0,0,1,653.64,72.29Z"/><g id="Group_15" data-name="Group 15"><path id="Path_119" data-name="Path 119" class="cls-20" d="M637,34a1.43,1.43,0,0,0-1.43-1.43h-1V30h3.34a1.76,1.76,0,0,1,1.78,1.73h0v0a.62.62,0,0,0,.6.6.59.59,0,0,0,.59-.59h0a3,3,0,0,0-3-3h-1.47a1,1,0,0,0-1.05-.94h-4.74a1,1,0,0,0-.91,1.16.13.13,0,0,0,0,.06,1,1,0,0,0,.9.91h.84v2.61h-.94a1.42,1.42,0,0,0-1.43,1.36v2.17H637Z"/><path id="Path_120" data-name="Path 120" class="cls-20" d="M648.13,58.59l-.45,0a5.15,5.15,0,0,0-5.1-4.46,4.16,4.16,0,0,0-1.11.13l-.28.07-.14,0-.14.07-.17,0-.14.07-.14.07-.14.07-.14.07-.24.14-.14.07-.14.1-.14.07-.14.14s-.07,0-.1.07l-.17.14-.07.07-.21.21,0,.07-.17.17-.07.07-.14.18-.07.07a1.51,1.51,0,0,0-.1.17l-.07.07-.17.28a4,4,0,0,0-1.4-.28,3.89,3.89,0,0,0,0,7.78h0a4,4,0,0,0,2.79-1.15l.27.24.14.07.18.14.17.07.14.07a5.89,5.89,0,0,0,2.3.56,5.23,5.23,0,0,0,3.24-1.15,2.91,2.91,0,1,0,2.34-4.64Z"/><circle id="Ellipse_1" data-name="Ellipse 1" class="cls-20" cx="646.49" cy="40.71" r="1.53"/><path id="Path_121" data-name="Path 121" class="cls-20" d="M641.47,42.94h-.42l-.14,0h-.07l-.14.07-.07,0-.1.07-.07,0-.07.07-.07,0-.07.07-.07.07-.07.07-.07.07-.07.07-.07.07a.16.16,0,0,0,0,.07l-.07.1s0,0,0,.07l-.07.1,0,.07s0,.07,0,.1a.16.16,0,0,0,0,.07.78.78,0,0,0,0,.14s0,.07,0,.07a.17.17,0,0,1,0,.14v.07c0,.07,0,.14,0,.21s0,.14,0,.24v.17s0,.1,0,.14a.16.16,0,0,0,0,.07.2.2,0,0,1,0,.14c0,.07,0,.07,0,.07a.2.2,0,0,1,0,.14s0,0,0,.07l.07.1a.09.09,0,0,0,0,.07l.07.07,0,.1.07.07.07.07.07.07.07.07.07.07.07.07.07.07.07.07.07,0,.1.07.07,0,.14,0h.07l.14.07h.07l.14,0h.41a2.23,2.23,0,0,0,.46-4.43h-.42Z"/><path id="Path_122" data-name="Path 122" class="cls-20" d="M636.66,54.79h.56a6.89,6.89,0,0,1,4.28-2.4V49.22a4.08,4.08,0,0,1-.17-8.13,5.07,5.07,0,0,0-4.88-3.76h-6.8a5,5,0,0,0-5,5V62.08A2.33,2.33,0,0,0,627,64.41h5.43a5.74,5.74,0,0,1,4.26-9.62Z"/><circle id="Ellipse_2" data-name="Ellipse 2" class="cls-20" cx="647.05" cy="50.71" r="2.89"/></g></g><g id="Club_-_Towels" data-name="Club - Towels"><path id="Path_123" data-name="Path 123" class="cls-19" d="M472.77,72.26H435.5a7.46,7.46,0,0,1-7.44-7.47,7.59,7.59,0,0,1,.08-1.07l5.69-37.41A7.42,7.42,0,0,1,441.18,20h37.27a7.45,7.45,0,0,1,7.44,7.47,7.59,7.59,0,0,1-.08,1.07L480.16,66A7.52,7.52,0,0,1,472.77,72.26Z"/><g id="Group_16" data-name="Group 16"><path id="Path_124" data-name="Path 124" class="cls-20" d="M469.42,38.31l-11.57-6.63a.23.23,0,0,1-.1-.28.19.19,0,0,1,.17-.1l3.21-.49.17.1,11.3,5.55a1.49,1.49,0,0,1-.31,2.78l-1.08.25a1.28,1.28,0,0,1-1.36-.66A1,1,0,0,0,469.42,38.31Z"/><path id="Path_125" data-name="Path 125" class="cls-20" d="M472.74,49.49l-17.68,4.85c-1.81.45-3.73-.45-5.16-1.6l-8.58-7.67a6.62,6.62,0,0,1-1.13-9.28,6.55,6.55,0,0,1,4-2.43l6.45-1,14.12,8.54-11,2.47a3,3,0,0,0-2.3,3.28v.21a3.06,3.06,0,0,0,3.41,2.58c.07,0,.14,0,.21,0l14.36-3a.73.73,0,0,0,.56-.87v0a.75.75,0,0,0-.7-.56h-.17L456,48a1.85,1.85,0,0,1-2.23-1.36v0a1.49,1.49,0,0,1,0-.42,1.85,1.85,0,0,1,1.46-1.81l13.74-3a5.18,5.18,0,0,1,6,3.45l.17.49a3.35,3.35,0,0,1-2.23,4.18h-.17Z"/><path id="Path_126" data-name="Path 126" class="cls-20" d="M440,46.22,451,55.52a3.1,3.1,0,0,0,2.79.66l18.65-4.5a2,2,0,0,1,2.37,1.22h0a2,2,0,0,1-1.12,2.62s-.1,0-.14.07L456,61.13a7.28,7.28,0,0,1-7.32-1.77l-9.14-9a2.87,2.87,0,0,1-.05-4.06l0,0,.1-.1h0a.28.28,0,0,1,.4,0l0,0Z"/></g></g><g id="Club_-_Charging_Station" data-name="Club - Charging Station"><path id="Path_64" data-name="Path 64" class="cls-19" d="M562.47,160.34H525.2a7.44,7.44,0,0,1-7.43-7.47,7.59,7.59,0,0,1,.07-1.07l5.69-37.41a7.42,7.42,0,0,1,7.36-6.34h37.27a7.45,7.45,0,0,1,7.43,7.47,7.71,7.71,0,0,1-.08,1.07L569.83,154A7.43,7.43,0,0,1,562.47,160.34Z"/><g id="Group_4" data-name="Group 4"><path id="Path_65" data-name="Path 65" class="cls-20" d="M556.3,119.45h-5.44v-2.79a.77.77,0,0,0-.76-.77h-6.8a.77.77,0,0,0-.77.77v2.79h-5.47a.78.78,0,0,0-.8.77v31.51a.79.79,0,0,0,.77.8h19.24a.79.79,0,0,0,.8-.78v0h0V120.21a.77.77,0,0,0-.77-.76Zm-6,17.85L546,143.08a.78.78,0,0,1-1.11.2l0,0a.89.89,0,0,1-.35-.8l1-6.52h-1.67a.83.83,0,0,1-.67-1.33l4.29-5.75a.81.81,0,0,1,1.12-.2l0,0a.86.86,0,0,1,.35.8l-1,6.52h1.68a.83.83,0,0,1,.83.83A1.12,1.12,0,0,1,550.27,137.3Z"/></g></g><g id="Club_-_Jacuzzi" data-name="Club - Jacuzzi"><path id="Path_72" data-name="Path 72" class="cls-19" d="M442.26,160.34H405a7.45,7.45,0,0,1-7.43-7.47,6.35,6.35,0,0,1,.08-1.07l5.68-37.44a7.42,7.42,0,0,1,7.36-6.31H448a7.45,7.45,0,0,1,7.43,7.47,6.43,6.43,0,0,1-.08,1.07L449.65,154A7.49,7.49,0,0,1,442.26,160.34Z"/><g id="Group_6" data-name="Group 6"><path id="Path_73" data-name="Path 73" class="cls-20" d="M444.77,132.24a3,3,0,0,0-3-3H425.63v-.7h-9.41v.7h-5a3.16,3.16,0,0,0-2.16.87,3,3,0,0,0,1.19,5v11.4l.8.14a97.52,97.52,0,0,0,16.28,1.32,71.08,71.08,0,0,0,14.4-1.32l.76-.17.21-11.37a2.83,2.83,0,0,0,1.19-.73A2.73,2.73,0,0,0,444.77,132.24Zm-7.56,3v10.11c-1.08.14-2.16.28-3.28.35V135.27ZM432,145.91l-2.82.1V135.27H432Zm-4.78.1-3,0v-5.44h1.46v-5.27h1.57Zm-11.05-10.74,0,5.27h1.29v5l-2-.21v-10Zm1.26,3.94v-1.39h6.9v1.39Zm1.95,1.33h2.82v5.33l-2.82-.21Zm4.95-10.7v5h-6.87v-5Zm-13.87,1.67a1.07,1.07,0,0,1,.76-.31h4.95v2.12h-4.91a1.08,1.08,0,0,1-1.08-1.08A1.09,1.09,0,0,1,410.44,131.51Zm1.74,3.77h1.22V145l-1.22-.18Zm27,9.86v-9.87h1.53l-.17,9.59ZM442.47,133a1.1,1.1,0,0,1-.77.32H425.63v-2.14h16.11a1.05,1.05,0,0,1,1.05,1v.06A1,1,0,0,1,442.47,133Z"/><path id="Path_74" data-name="Path 74" class="cls-20" d="M426.05,124.78a1.65,1.65,0,0,1,.53,1.46.51.51,0,0,0,.38.63h.14a.53.53,0,0,0,.52-.42,2.64,2.64,0,0,0-.73-2.33l0-.07a1.83,1.83,0,0,1-.13-2.59,1.89,1.89,0,0,1,.2-.2.5.5,0,0,0,0-.71l0,0h0a.58.58,0,0,0-.76,0,2.9,2.9,0,0,0-.23,4.09l.09.09Z"/><path id="Path_75" data-name="Path 75" class="cls-20" d="M421.07,124.78a1.71,1.71,0,0,1,.52,1.46.56.56,0,0,0,.42.63h.07a.52.52,0,0,0,.52-.42,2.67,2.67,0,0,0-.77-2.33v0a1.83,1.83,0,0,1-.13-2.59,1.26,1.26,0,0,1,.2-.2.52.52,0,0,0,0-.72h0a.58.58,0,0,0-.76,0,2.89,2.89,0,0,0-.23,4.09l.09.09Z"/><path id="Path_76" data-name="Path 76" class="cls-20" d="M430.24,124.78a1.84,1.84,0,0,1,.52,1.46.56.56,0,0,0,.42.63h.07a.53.53,0,0,0,.52-.42,2.64,2.64,0,0,0-.73-2.33l0-.07a1.83,1.83,0,0,1-.13-2.59,1.89,1.89,0,0,1,.2-.2.51.51,0,0,0,0-.72h0a.58.58,0,0,0-.76,0,2.9,2.9,0,0,0-.22,4.09l.08.09Z"/></g></g><g id="Club_-_Lounge" data-name="Club - Lounge"><path id="Path_81" data-name="Path 81" class="cls-19" d="M502.63,160.34H465.36a7.45,7.45,0,0,1-7.43-7.47,6.35,6.35,0,0,1,.08-1.07l5.68-37.44a7.42,7.42,0,0,1,7.36-6.31h37.27a7.45,7.45,0,0,1,7.43,7.47,6.43,6.43,0,0,1-.08,1.07L510,154A7.5,7.5,0,0,1,502.63,160.34Z"/><g id="Group_8" data-name="Group 8"><path id="Path_82" data-name="Path 82" class="cls-20" d="M505.11,122.38l-4,12.69-.74,11.53a1.18,1.18,0,0,1-1.18,1.12h-.42a1.17,1.17,0,0,1-1.18-1.17v0h0v-.35H483.78v.35a1.21,1.21,0,0,1-1.19,1.19h-.66a1.17,1.17,0,0,1-1.15-1.47l2.65-10.94h2a.67.67,0,0,0,.66-.68V134a.67.67,0,0,0-.1-.39l11.68-.9,4.71-11.3a1.2,1.2,0,0,1,1.55-.67h0s0,0,.07,0l.52.25A1.23,1.23,0,0,1,505.11,122.38Z"/><path id="Path_83" data-name="Path 83" class="cls-20" d="M469.2,133.53h14.61a.66.66,0,0,1,.66.66h0a.66.66,0,0,1-.66.67H469.2a.67.67,0,0,1-.66-.67h0A.68.68,0,0,1,469.2,133.53Z"/><path id="Path_84" data-name="Path 84" class="cls-20" d="M475,134.89s.67.25.84,3.14v8h1.43V138s.17-2.62.84-3.1"/><path id="Path_85" data-name="Path 85" class="cls-20" d="M473.28,145.8h6.45a.62.62,0,0,1,.63.6h0a.6.6,0,0,1-.61.59h-6.47a.63.63,0,0,1-.63-.59h0A.63.63,0,0,1,473.28,145.8Z"/><path id="Path_86" data-name="Path 86" class="cls-20" d="M481.06,126.66h-.25v-.17a.38.38,0,0,0-.38-.38h-3.21a.38.38,0,0,0-.38.38h0v.17h-.28a.25.25,0,0,0-.25.24h0v.38a.1.1,0,0,0,.09.1h4.89a.08.08,0,0,0,.1-.08s0,0,0,0v-.35a.4.4,0,0,0-.34-.28Z"/><path id="Path_87" data-name="Path 87" class="cls-20" d="M480.05,131.68,480,133s0,.07-.07.07h-2.17a.07.07,0,0,1-.07-.07l-.14-1.33H477l.1,1.4a.58.58,0,0,0,.6.52h2.16a.54.54,0,0,0,.55-.52l.14-1.4Z"/><path id="Path_88" data-name="Path 88" class="cls-20" d="M476.76,129.14l.21,0h.28l-.07-.94h3.18l-.07.91h.27l.21,0,.14-1.43h-4.25Z"/><path id="Path_89" data-name="Path 89" class="cls-20" d="M480.6,129.45H477l-.14,0s0,.06,0,.14h0v.13l.14,1.4a.16.16,0,0,0,.18.14h3.27c.07,0,.18-.07.18-.14l.14-1.33v-.24s0-.07,0-.1Zm-1.43,1.36a.8.8,0,0,1-1.08.18c-.24-.25-.14-.74.18-1.09s.83-.41,1-.17A.82.82,0,0,1,479.17,130.81Z"/><path id="Path_90" data-name="Path 90" class="cls-20" d="M479.14,129.84a.75.75,0,0,0-.56.55.74.74,0,0,1-.17.25l-.18.07c-.07,0-.07.1-.07.17s.07.07.1.07h.07l.18-.1a.53.53,0,0,0,.27-.35.55.55,0,0,1,.39-.38c.07,0,.14,0,.14-.1s0-.14-.1-.14S479.17,129.84,479.14,129.84Z"/></g></g><g id="Club_-_Pool" data-name="Club - Pool"><path id="Path_95" data-name="Path 95" class="cls-19" d="M382.43,160.34H345.15a7.45,7.45,0,0,1-7.43-7.47,7.59,7.59,0,0,1,.08-1.07l5.68-37.44a7.43,7.43,0,0,1,7.36-6.31h37.23a7.45,7.45,0,0,1,7.44,7.47,7.71,7.71,0,0,1-.08,1.07L389.78,154A7.45,7.45,0,0,1,382.43,160.34Z"/><g id="Group_10" data-name="Group 10"><path id="Path_96" data-name="Path 96" class="cls-20" d="M383.44,147.16a5.35,5.35,0,0,0-3.73,1.5c-.77.63-1,.8-1.85.8a2.47,2.47,0,0,1-1.85-.8,5.58,5.58,0,0,0-3.76-1.5,5.35,5.35,0,0,0-3.73,1.5c-.77.63-1,.8-1.85.8a2.45,2.45,0,0,1-1.85-.8,5.6,5.6,0,0,0-3.73-1.5,5.47,5.47,0,0,0-3.76,1.5c-.77.63-1,.8-1.85.8a2.47,2.47,0,0,1-1.85-.8,5.67,5.67,0,0,0-3.73-1.5,1.5,1.5,0,0,0,0,3h0a2.47,2.47,0,0,1,1.85.8,5.55,5.55,0,0,0,3.73,1.5,5.48,5.48,0,0,0,3.76-1.5c.77-.63,1-.8,1.85-.8a2.54,2.54,0,0,1,1.85.8,5.62,5.62,0,0,0,3.73,1.5,5.31,5.31,0,0,0,3.73-1.5c.77-.63,1-.8,1.85-.8a2.43,2.43,0,0,1,1.84.8,5.62,5.62,0,0,0,3.77,1.5,5.31,5.31,0,0,0,3.73-1.5c.77-.63,1-.8,1.85-.8a1.5,1.5,0,0,0,0-3Z"/><path id="Path_97" data-name="Path 97" class="cls-20" d="M383.44,140.54a5.31,5.31,0,0,0-3.73,1.5c-.77.63-1,.8-1.85.8A2.47,2.47,0,0,1,376,142a5.58,5.58,0,0,0-3.76-1.5,5.31,5.31,0,0,0-3.73,1.5c-.77.63-1,.8-1.85.8a2.45,2.45,0,0,1-1.85-.8,5.55,5.55,0,0,0-3.73-1.5,5.47,5.47,0,0,0-3.76,1.5c-.77.63-1,.8-1.85.8a2.54,2.54,0,0,1-1.85-.8,5.67,5.67,0,0,0-3.73-1.5,1.5,1.5,0,0,0,0,3h0a2.47,2.47,0,0,1,1.85.8,5.55,5.55,0,0,0,3.73,1.5,5.48,5.48,0,0,0,3.76-1.5c.77-.63,1-.8,1.85-.8a2.54,2.54,0,0,1,1.85.8,5.67,5.67,0,0,0,3.73,1.5,5.31,5.31,0,0,0,3.73-1.5c.77-.63,1-.8,1.85-.8a2.43,2.43,0,0,1,1.84.8,5.62,5.62,0,0,0,3.77,1.5,5.31,5.31,0,0,0,3.73-1.5c.77-.63,1-.8,1.85-.8a1.5,1.5,0,0,0,0-3Z"/><path id="Path_98" data-name="Path 98" class="cls-20" d="M349.8,136.91a2.44,2.44,0,0,1,1.84.81,5.64,5.64,0,0,0,3.73,1.5,5.56,5.56,0,0,0,3.77-1.5c.77-.63,1-.81,1.85-.81a2.48,2.48,0,0,1,1.84.81,5.74,5.74,0,0,0,3.73,1.5,5.36,5.36,0,0,0,3.73-1.5c.77-.63,1-.81,1.85-.81a2.45,2.45,0,0,1,1.85.81,5.65,5.65,0,0,0,3.77,1.5,5.39,5.39,0,0,0,3.73-1.5c.76-.63,1-.81,1.84-.81a1.5,1.5,0,0,0,0-3,5.39,5.39,0,0,0-3.73,1.5c-.76.63-1,.81-1.84.81a2,2,0,0,1-1.6-.63l-.25-.21-.17-.1,0,0-.1-.1,0,0s-.1,0-.1-.1l-.07,0-.1-.07-.07-.07-.1-.07-.1,0-.1-.1s-.07,0-.1,0l-.18-.07-.07,0-.24-.1h0a4.69,4.69,0,0,0-2.09-.39,5.44,5.44,0,0,0-3.73,1.5,4.81,4.81,0,0,1-.87.63h0l-.21.07h-.07l-.21.07h-1.05l-.21-.07h0l-.21-.07a3.87,3.87,0,0,1-.87-.63,5.46,5.46,0,0,0-3.73-1.5,5.56,5.56,0,0,0-3.77,1.5,2.28,2.28,0,0,1-1.85.8,2.43,2.43,0,0,1-1.84-.8,5.74,5.74,0,0,0-3.73-1.5,1.49,1.49,0,0,0-1.5,1.48v0a1.41,1.41,0,0,0,1.41,1.42Z"/><path id="Path_99" data-name="Path 99" class="cls-20" d="M366.63,134.58c.28,0,.28,0,.8-.42l.18-.14v-2.23h6.73v.77a6.3,6.3,0,0,1,1.91.94V119.31a1.44,1.44,0,0,1,1.43-1.43H381a1,1,0,0,0,0-1.95h-3.35a3.35,3.35,0,0,0-3.35,3.34v2.2h-6.72v-2.2a1.44,1.44,0,0,1,1.43-1.43h3.35a1,1,0,0,0,1-1,1,1,0,0,0-1-1H369a3.35,3.35,0,0,0-3.35,3.35V134l.18.14C366.35,134.58,366.35,134.58,366.63,134.58Zm.94-4.71V127.6h6.73v2.27Zm6.73-6.45v2.27h-6.72v-2.27Z"/></g></g><g id="Club_-_Refreshments" data-name="Club - Refreshments"><path id="Path_100" data-name="Path 100" class="cls-19" d="M622.84,160.34H585.57a7.45,7.45,0,0,1-7.43-7.47,6.35,6.35,0,0,1,.08-1.07l5.65-37.44a7.42,7.42,0,0,1,7.36-6.31h37.26a7.45,7.45,0,0,1,7.44,7.47,7.71,7.71,0,0,1-.08,1.07L630.2,154A7.45,7.45,0,0,1,622.84,160.34Z"/><g id="Group_11" data-name="Group 11"><path id="Path_101" data-name="Path 101" class="cls-20" d="M601.51,123.07a3.23,3.23,0,0,1-1.22-2.3,2.78,2.78,0,0,1,1.29-2,1.62,1.62,0,0,0,.63-1.25,1.53,1.53,0,0,0-.63-1.22,2,2,0,0,0-1.29-.46h0a2,2,0,0,0-1.29.46,6,6,0,0,0-2.51,4.25,6.42,6.42,0,0,0,2.13,4.67l.1.1c.83.84,1.25,1.29,1,2.16a1.55,1.55,0,0,0,.25,1.22,2.16,2.16,0,0,0,1.32.8h.35a1.85,1.85,0,0,0,1.85-1.36c.59-2.54-1-4.11-1.92-5Z"/><path id="Path_102" data-name="Path 102" class="cls-20" d="M609.6,123.18l-.1-.1a3.39,3.39,0,0,1-1.22-2.3,2.94,2.94,0,0,1,1.29-2,1.59,1.59,0,0,0,.24-2.23,1.36,1.36,0,0,0-.24-.24,2.24,2.24,0,0,0-1.29-.45h0a2.06,2.06,0,0,0-1.29.45,6.08,6.08,0,0,0-2.55,4.25,6.24,6.24,0,0,0,2.16,4.67l.1.1c.84.84,1.26,1.29,1,2.17a1.42,1.42,0,0,0,.21,1.18,2.09,2.09,0,0,0,1.32.84h.35a1.9,1.9,0,0,0,1.89-1.36C612.11,125.69,610.54,124.12,609.6,123.18Z"/><path id="Path_103" data-name="Path 103" class="cls-20" d="M617.93,132.48H593.28a2,2,0,0,0-2,2h0v5.27a12.88,12.88,0,0,0,4.12,9.41h-3.49a1.67,1.67,0,1,0,0,3.34h24.34a1.67,1.67,0,0,0,1.67-1.67,1.7,1.7,0,0,0-1.67-1.67H612.7a12.44,12.44,0,0,0,3.28-4.81h1.95a5.89,5.89,0,0,0,5.89-5.88h0A6,6,0,0,0,617.93,132.48Zm0,8.44h-1.15c0-.38.07-.8.07-1.22v-3.87h1.08a2.55,2.55,0,0,1,0,5.09Z"/></g></g><g id="Club_-_Sauna" data-name="Club - Sauna"><path id="Path_104" data-name="Path 104" class="cls-19" d="M201.85,160.34H164.57a7.45,7.45,0,0,1-7.43-7.47,7.59,7.59,0,0,1,.08-1.07l5.68-37.44a7.4,7.4,0,0,1,7.33-6.31h37.26a7.45,7.45,0,0,1,7.44,7.47,7.71,7.71,0,0,1-.08,1.07L209.2,154A7.45,7.45,0,0,1,201.85,160.34Z"/><g id="Group_12" data-name="Group 12"><path id="Path_105" data-name="Path 105" class="cls-20" d="M179.26,131.75a.92.92,0,0,0-.63.28c-2.06,2.06-2.13,4.6-.25,7l.07.1a2.73,2.73,0,0,1,.91,2.44.91.91,0,0,0,.66,1.05h.21a.83.83,0,0,0,.84-.7,4.57,4.57,0,0,0-1.22-3.9l-.07-.07c-1.36-1.71-1.33-3.24.1-4.67a.85.85,0,0,0,0-1.19l0,0h0A1,1,0,0,0,179.26,131.75Z"/><path id="Path_106" data-name="Path 106" class="cls-20" d="M186.19,131.75a.9.9,0,0,0-.62.28c-2.06,2.06-2.13,4.6-.21,7l.07.1a2.8,2.8,0,0,1,.87,2.44.91.91,0,0,0,.66,1.05h.21a.83.83,0,0,0,.84-.7,4.6,4.6,0,0,0-1.22-3.9l-.07-.07c-1.36-1.71-1.33-3.24.1-4.67a.85.85,0,0,0,.08-1.18h0l0,0A1.26,1.26,0,0,0,186.19,131.75Z"/><path id="Path_107" data-name="Path 107" class="cls-20" d="M193.17,131.75a.92.92,0,0,0-.63.28c-2.06,2.06-2.13,4.6-.21,7l.07.1a2.8,2.8,0,0,1,.87,2.44.89.89,0,0,0,.68,1.05h.2a.9.9,0,0,0,.87-.7,4.47,4.47,0,0,0-1.26-3.9l-.07-.07c-1.36-1.71-1.32-3.24.1-4.67a.84.84,0,0,0,0-1.19l0,0h0A.92.92,0,0,0,193.17,131.75Z"/><path id="Path_108" data-name="Path 108" class="cls-20" d="M186.05,115.93a2.24,2.24,0,0,0-1.32.41L168.8,128.79a2.69,2.69,0,0,0-1.05,2.16v18.9a2.63,2.63,0,0,0,2.61,2.62h31.35a2.61,2.61,0,0,0,2.61-2.61h0V131a2.75,2.75,0,0,0-1-2.16l-15.94-12.41A1.94,1.94,0,0,0,186.05,115.93ZM170.4,149.81V131l0-.1,15.61-12.17,15.62,12.17a.12.12,0,0,1,0,.1v18.9h-9.14v-2.3h-13v2.3H170.4Z"/></g></g><g id="Club_-_Shoe_Lockers" data-name="Club - Shoe Lockers"><path id="Path_109" data-name="Path 109" class="cls-17" d="M322,160.34H284.78a7.45,7.45,0,0,1-7.43-7.47,6.35,6.35,0,0,1,.08-1.07l5.65-37.44a7.42,7.42,0,0,1,7.36-6.31H327.7a7.45,7.45,0,0,1,7.44,7.47,7.71,7.71,0,0,1-.08,1.07L329.41,154A7.52,7.52,0,0,1,322,160.34Z"/><g id="Group_13" data-name="Group 13"><path id="Path_110" data-name="Path 110" class="cls-18" d="M287.93,118.47v12.66h17.22V115.89H290.54A2.62,2.62,0,0,0,287.93,118.47Zm4.21,3.21a1.81,1.81,0,1,1-1.81,1.81h0A1.85,1.85,0,0,1,292.14,121.68Z"/><path id="Path_111" data-name="Path 111" class="cls-18" d="M287.93,146a2.66,2.66,0,0,0,2.61,2.62h2.23v2.09a1.74,1.74,0,0,0,1.75,1.74h.34a1.75,1.75,0,0,0,1.75-1.74h0v-2.09h8.54V133.39H287.93Zm4.21-6.8a1.82,1.82,0,1,1-1.81,1.81,1.81,1.81,0,0,1,1.81-1.81Z"/><path id="Path_112" data-name="Path 112" class="cls-18" d="M322,115.89H307.34v15.24h17.23V118.47A2.63,2.63,0,0,0,322,115.89Zm-10.42,9.41a1.81,1.81,0,1,1,1.81-1.81h0A1.81,1.81,0,0,1,311.53,125.3Z"/><path id="Path_113" data-name="Path 113" class="cls-18" d="M307.31,148.63h8.54v2.09a1.74,1.74,0,0,0,1.74,1.74h.35a1.76,1.76,0,0,0,1.75-1.74h0v-2.09h2.23a2.66,2.66,0,0,0,2.61-2.62V133.39H307.31Zm4.22-9.42a1.82,1.82,0,1,1-1.82,1.82,1.82,1.82,0,0,1,1.82-1.82Z"/></g></g><g id="Club_-_Steam" data-name="Club - Steam"><path id="Path_114" data-name="Path 114" class="cls-19" d="M262.18,160.34H224.94a7.45,7.45,0,0,1-7.43-7.47,7.59,7.59,0,0,1,.08-1.07l5.66-37.44a7.44,7.44,0,0,1,7.35-6.31h37.26a7.45,7.45,0,0,1,7.44,7.47,7.71,7.71,0,0,1-.08,1.07L269.57,154A7.49,7.49,0,0,1,262.18,160.34Z"/><g id="Group_14" data-name="Group 14"><path id="Path_115" data-name="Path 115" class="cls-20" d="M246.39,115.93a2.2,2.2,0,0,0-1.32.41l-15.9,12.41a2.64,2.64,0,0,0-1,2.17v18.9a2.61,2.61,0,0,0,2.61,2.61h31.34a2.61,2.61,0,0,0,2.61-2.61h0V131a2.75,2.75,0,0,0-1-2.16l-15.94-12.41A2,2,0,0,0,246.39,115.93Zm-15.65,33.88V131l0-.1,15.62-12.17L262,130.85a.11.11,0,0,1,0,.1v18.9h-9.13v-2.3h-13v2.3h-9.17Z"/><path id="Path_116" data-name="Path 116" class="cls-20" d="M253.08,128.06a.57.57,0,0,0-.52.31.59.59,0,0,0,.26.79h0a2.27,2.27,0,0,1-1,4.32h-.38a.71.71,0,0,0-.35-.1.67.67,0,0,0-.52.28.62.62,0,0,0,.21.84,2.78,2.78,0,0,1,1.36,2.48,2.92,2.92,0,0,1-2.93,2.89,3.09,3.09,0,0,1-1.12-.21l-.21,0a.61.61,0,0,0-.55.34.54.54,0,0,0,.17.7,2.43,2.43,0,0,1-1.29,3.18,2.34,2.34,0,0,1-.94.17,2.52,2.52,0,0,1-2.13-1.22,3.59,3.59,0,0,0,3.17-3.63.58.58,0,0,0-.58-.59h0a.61.61,0,0,0-.59.59,2.44,2.44,0,1,1-4.88,0h0a2.62,2.62,0,0,1,.1-.73,4.4,4.4,0,0,0,.73.07,3.72,3.72,0,0,0,1.64-.38.6.6,0,0,0,.27-.81.61.61,0,0,0-.55-.34l-.28.07a2.27,2.27,0,0,1-1.08.24,2.44,2.44,0,0,1,0-4.88,2.5,2.5,0,0,1,1,.21.42.42,0,0,0,.24.07.61.61,0,0,0,.62-.6.62.62,0,0,0-.34-.55,3.63,3.63,0,0,0-4.81,1.78,4.5,4.5,0,0,0-.35,1.5,3.67,3.67,0,0,0,1.82,3.14,3.41,3.41,0,0,0-.21,1.18,3.65,3.65,0,0,0,2.75,3.56,3.64,3.64,0,0,0,7.11-1.15c0-.18,0-.35,0-.52h.38a4.14,4.14,0,0,0,3.39-6.5,3.42,3.42,0,0,0,2.6-4.08l0-.07a3.53,3.53,0,0,0-1.88-2.33.81.81,0,0,0-.31,0Z"/><path id="Path_117" data-name="Path 117" class="cls-20" d="M246.42,131.2a.67.67,0,0,0-.59.41.62.62,0,0,0,.38.77h0a1.52,1.52,0,0,1,1.15,1.53,1.59,1.59,0,0,1-1.57,1.64h-.06a1.67,1.67,0,0,1-1.6-1.29.63.63,0,0,0-.59-.48h-.1a.61.61,0,0,0-.46.73h0a2.86,2.86,0,0,0,3.42,2.13h0a2.78,2.78,0,0,0,2.12-3.33,2.82,2.82,0,0,0-1.91-2.07Z"/></g></g><g id="Club_-_Wi_Fi" data-name="Club - Wi Fi"><path id="Path_127" data-name="Path 127" class="cls-19" d="M683.88,160.34H646.61a7.45,7.45,0,0,1-7.44-7.47,7.59,7.59,0,0,1,.08-1.07l5.69-37.44a7.42,7.42,0,0,1,7.36-6.31h37.26a7.45,7.45,0,0,1,7.44,7.47,7.71,7.71,0,0,1-.08,1.07L691.27,154A7.49,7.49,0,0,1,683.88,160.34Z"/><g id="Group_17" data-name="Group 17"><path id="Path_128" data-name="Path 128" class="cls-20" d="M686,127.57a25.08,25.08,0,0,0-17.88-7.46,24.82,24.82,0,0,0-17.89,7.46,1.39,1.39,0,0,0,0,2h0l0,0,2,1.95a1.38,1.38,0,0,0,2,0h0l0,0a19.67,19.67,0,0,1,27.81,0h0l0,0a1.38,1.38,0,0,0,2,0h0l0,0,2-1.95a1.34,1.34,0,0,0,.42-1A1,1,0,0,0,686,127.57Z"/><path id="Path_129" data-name="Path 129" class="cls-20" d="M668.09,131.37a13.68,13.68,0,0,0-9.83,4.08,1.38,1.38,0,0,0,0,2h0a0,0,0,0,0,0,0h0l2,1.95a1.39,1.39,0,0,0,1.95,0h0l0,0a8.29,8.29,0,0,1,5.92-2.37,8.9,8.9,0,0,1,5.93,2.37,1.39,1.39,0,0,0,2,0h0l0,0,2-1.95a1.39,1.39,0,0,0,0-1.95h0a0,0,0,0,0,0,0h0A13.79,13.79,0,0,0,668.09,131.37Z"/><circle id="Ellipse_3" data-name="Ellipse 3" class="cls-20" cx="668.09" cy="145.45" r="2.82"/></g></g><g id="Sauna" class="cls-2"><text class="cls-5" transform="translate(174.67 172)">Sauna</text></g><g id="Steam_Room" data-name="Steam Room" class="cls-2"><text class="cls-5" transform="translate(224.39 172)"><tspan class="cls-13">St</tspan><tspan x="7.19" y="0">eam </tspan><tspan class="cls-21" x="23.71" y="0">R</tspan><tspan class="cls-8" x="28.38" y="0">oom</tspan></text></g><g id="Shoe_Locker_Rental" data-name="Shoe Locker Rental" class="cls-2"><text class="cls-5" transform="translate(284.8 172)">Shoe <tspan class="cls-6" x="18.97" y="0">L</tspan><tspan class="cls-8" x="22.89" y="0">oc</tspan><tspan class="cls-16" x="30.81" y="0">k</tspan><tspan x="34.5" y="0">er</tspan></text><text class="cls-5" transform="translate(294.41 183)"><tspan class="cls-11">R</tspan><tspan x="4.67" y="0">e</tspan><tspan class="cls-22" x="9.01" y="0">n</tspan><tspan class="cls-23" x="13.33" y="0">t</tspan><tspan x="16.2" y="0">al</tspan></text></g><g id="Swimming_Pool" data-name="Swimming Pool" class="cls-2"><text class="cls-5" transform="translate(346.48 172)"><tspan class="cls-24">S</tspan><tspan x="4.16" y="0">wimming</tspan></text><text class="cls-5" transform="translate(356.98 183)"><tspan class="cls-6">P</tspan><tspan x="4.39" y="0">ool</tspan></text></g><g id="Jacuzzi" class="cls-2"><text class="cls-5" transform="translate(415.18 172)">Jacuzzi</text></g><g id="Lounge" class="cls-2"><text class="cls-5" transform="translate(473.19 172)"><tspan class="cls-6">L</tspan><tspan x="3.92" y="0">ounge</tspan></text></g><g id="Charging_Station" data-name="Charging Station" class="cls-2"><text class="cls-5" transform="translate(530.21 172)">Cha<tspan class="cls-12" x="12.98" y="0">r</tspan><tspan x="15.76" y="0">ging</tspan></text><text class="cls-5" transform="translate(533.02 183)"><tspan class="cls-13">St</tspan><tspan x="7.19" y="0">ation</tspan></text></g><g id="Refreshments" class="cls-2"><text class="cls-5" transform="translate(581.1 172)"><tspan class="cls-11">R</tspan><tspan class="cls-6" x="4.67" y="0">e</tspan><tspan class="cls-23" x="8.86" y="0">f</tspan><tspan class="cls-9" x="11.8" y="0">r</tspan><tspan x="14.58" y="0">eshme</tspan><tspan class="cls-22" x="37.77" y="0">n</tspan><tspan x="42.09" y="0">ts</tspan></text></g><g id="Wi_Fi" data-name="Wi Fi" class="cls-2"><text class="cls-5" transform="translate(659.82 172)">Wi Fi</text></g></g></g></g></svg>