<svg xmlns="http://www.w3.org/2000/svg" viewBox="0 0 233 70"><defs><style>.cls-1{fill:#3c3c3b;}.cls-2{fill:none;stroke:#9f9e9d;}.cls-3,.cls-5,.cls-8{fill:#fff;}.cls-4,.cls-5,.cls-8{isolation:isolate;}.cls-5{font-size:10px;font-family:SohoGothicPro-Regular, Soho Gothic Pro;}.cls-6{letter-spacing:-0.01em;}.cls-7{letter-spacing:0em;}.cls-8{font-size:12px;font-family:SohoGothicPro-Bold, Soho Gothic Pro;font-weight:700;}</style></defs><title>dualjkt_selected</title><g id="Layer_2" data-name="Layer 2"><g id="Layer_1-2" data-name="Layer 1"><g id="Group_78" data-name="Group 78"><rect id="Rectangle_15-5" data-name="Rectangle 15-5" class="cls-1" width="233" height="70" rx="13" ry="13"/><line id="Line_2-2" data-name="Line 2-2" class="cls-2" x1="69" y1="10" x2="69" y2="60"/><g id="Layer_2-2" data-name="Layer 2-2"><g id="Layer_1-2-2" data-name="Layer 1-2"><path id="Path_158-2" data-name="Path 158-2" class="cls-3" d="M21.51,36.71,23,41.05l-3.73-2.7-3.7,2.7L17,36.71,13.25,34H17.8l1.42-4.37L20.62,34h4.6ZM30.63,34l-2-6.18H19.82L21.73,22h-6.5L11.69,32.87,9.74,31.46,7.83,37.3,14.25,42,9,45.84l5.24,3.81,9.34-6.75.61,1.9L29.4,41,27.16,34Z"/><path id="Path_159-2" data-name="Path 159-2" class="cls-3" d="M31.06,28.21h-.44v-.37H32v.37H31.5v1.71h-.44Z"/><path id="Path_160-2" data-name="Path 160-2" class="cls-3" d="M33.8,28.49l-.48,1.43h-.15l-.46-1.43v1.43h-.44V27.84h.57l.4,1.25.41-1.25h.55v2.08h-.4Z"/></g></g><g id="Logo_FF-2" data-name="Logo FF-2"><path id="Path_44-2" data-name="Path 44-2" class="cls-3" d="M50.11,42l2.43-16.46h-10l-.88,5.71h4L44.06,42H40l-.87,5.7H53.25l.86-5.7ZM54,25.49l-.87,5.71h8L62,25.49ZM52,38.94H56.2L57,33.53H52.79L52,38.94Z"/><path id="Path_45-2" data-name="Path 45-2" class="cls-3" d="M38.15,27.42h-.37l.32-1.57h-.56l.05-.36H39l-.06.36h-.53Z"/><path id="Path_46-2" data-name="Path 46-2" class="cls-3" d="M40.68,26.22l-.56,1h-.38l-.19-1-.27,1.2H38.9l.47-1.93h.37L40,26.84l.69-1.35h.43l-.27,1.93h-.35Z"/></g><g id="Dual_Access_Jakarta" data-name="Dual Access Jakarta" class="cls-4"><text class="cls-5" transform="translate(75 31)">Dual <tspan class="cls-6" x="22.61" y="0">Acc</tspan><tspan x="38.33" y="0">ess</tspan></text><text class="cls-5" transform="translate(75 46)">Ja<tspan class="cls-6" x="8.06" y="0">k</tspan><tspan class="cls-7" x="13.13" y="0">arta</tspan></text></g><g id="_IDR_175_000" data-name=" IDR 175 000" class="cls-4"><text class="cls-8" transform="translate(140 39)">+ IDR 175,000</text></g></g></g></g></svg>