<svg xmlns="http://www.w3.org/2000/svg" viewBox="0 0 164 167"><defs><style>.cls-1{fill:#3c3c3b;}.cls-2,.cls-5,.cls-6,.cls-8{fill:#fff;}.cls-2{stroke:#c82031;stroke-miterlimit:10;stroke-width:2px;}.cls-3{fill:#c82031;}.cls-4,.cls-5,.cls-6,.cls-8{isolation:isolate;}.cls-5{font-size:16px;font-family:SohoGothicPro-Bold, Soho Gothic Pro;font-weight:700;}.cls-6,.cls-8{font-size:12px;font-family:SohoGothicPro-Regular, Soho Gothic Pro;}.cls-7{letter-spacing:-0.02em;}.cls-8{letter-spacing:-0.01em;}.cls-9{letter-spacing:-0.02em;}.cls-10{letter-spacing:0em;}</style></defs><title>gf1_selected</title><g id="Layer_2" data-name="Layer 2"><g id="Layer_1-2" data-name="Layer 1"><g id="Group_40" data-name="Group 40"><rect id="Rectangle_11-2" data-name="Rectangle 11-2" class="cls-1" width="164" height="167" rx="13" ry="13"/><g id="Club_-_Cycling" data-name="Club - Cycling"><path id="Path_144" data-name="Path 144" class="cls-2" d="M103.55,83H52.24A10.26,10.26,0,0,1,42,72.72a10.42,10.42,0,0,1,.11-1.48l7.82-51.5A10.24,10.24,0,0,1,60.06,11h51.32a10.25,10.25,0,0,1,10.23,10.28,9.13,9.13,0,0,1-.11,1.48l-7.77,51.55A10.31,10.31,0,0,1,103.55,83Z"/><g id="Group_23" data-name="Group 23"><circle id="Ellipse_8" data-name="Ellipse 8" class="cls-3" cx="93.9" cy="27.51" r="4.99"/><path id="Path_145" data-name="Path 145" class="cls-3" d="M80.32,46.86,87.81,40l1.34,2.83a4.71,4.71,0,0,0,4.27,2.74H99a2.66,2.66,0,0,0,.66-5.27H93.76l-3.27-7.1-.19-.34L89.73,32a4.69,4.69,0,0,0-6.58-.29h0L72.4,41.53A4.64,4.64,0,0,0,72,48.08l0,0h0l.48.44h0l6.29,5V65.86a3,3,0,1,0,6,0h0V53.15a5,5,0,0,0-1.63-3.7Z"/><path id="Path_146" data-name="Path 146" class="cls-3" d="M96.88,51.27A10.13,10.13,0,1,0,107,61.4h0v0A10.13,10.13,0,0,0,96.88,51.27Zm0,16.18A6.15,6.15,0,1,1,103,61.3h0a6.12,6.12,0,0,1-6.1,6.15Z"/><path id="Path_147" data-name="Path 147" class="cls-3" d="M66.73,51.27A10.13,10.13,0,1,0,76.86,61.4h0v0A10.15,10.15,0,0,0,66.73,51.27Zm0,16.18a6.15,6.15,0,1,1,6.15-6.15h0a6.12,6.12,0,0,1-6.11,6.15Z"/></g></g><g id="_IDR_75_000_Unlimited_Cycling_Classes" data-name=" IDR 75 000 Unlimited Cycling Classes" class="cls-4"><text class="cls-5" transform="translate(29.09 115)">+ IDR 75,000</text><text class="cls-6" transform="translate(55.22 134)">Unlimi<tspan class="cls-7" x="35.02" y="0">t</tspan><tspan x="39.67" y="0">ed</tspan></text><text class="cls-8" transform="translate(41.17 152)">C<tspan class="cls-9" x="6.56" y="0">y</tspan><tspan class="cls-10" x="12.84" y="0">cling Classes</tspan></text></g></g></g></g></svg>