<?xml version="1.0" encoding="utf-8"?>
<!-- Generator: Adobe Illustrator 17.0.0, SVG Export Plug-In . SVG Version: 6.00 Build 0)  -->
<!DOCTYPE svg PUBLIC "-//W3C//DTD SVG 1.1//EN" "http://www.w3.org/Graphics/SVG/1.1/DTD/svg11.dtd">
<svg version="1.1" id="Layer_1" xmlns="http://www.w3.org/2000/svg" xmlns:xlink="http://www.w3.org/1999/xlink" x="0px" y="0px"
	 width="1600px" height="1600px" viewBox="0 0 1600 1600" enable-background="new 0 0 1600 1600" xml:space="preserve">
<g>
	<path d="M222.683,1380.516l25.878-173.523l43.187-6.43l-7.46,49.355h43.371l-5.325,35.228h-43.292l-13.945,93.559
		c-0.793,5.873,1.508,8.597,7.792,8.597c8.396,0,19.451-3.825,29.035-7.59l9.947,28.198c-14.064,7.634-32.757,13.16-52.959,13.215
		C232.507,1421.124,219.267,1404.535,222.683,1380.516 M1495.87,1380.516l25.867-173.523l43.164-6.43l-7.429,49.355h43.344
		l-5.321,35.228h-43.304l-13.937,93.559c-0.806,5.873,1.535,8.597,7.789,8.597c8.386,0,19.444-3.825,29.021-7.59l9.947,28.198
		c-14.024,7.634-32.718,13.16-52.923,13.215C1505.662,1421.124,1492.422,1404.535,1495.87,1380.516 M455.678,1297.903
		c0.238-1.756,1.774-11.652-9.169-11.652c-11.141,0-34.283,10.302-49.68,19.641l-16.716,111.806h-42.183l24.701-165.313
		l35.986-5.435l-0.103,20.402c21.906-12.109,48.139-21.058,68.013-21.109c23.332,0,32.331,15.188,32.886,33.365
		c0.199,6.58-0.344,11.068-1.2,16.479l-18.196,121.611h-42.216L455.678,1297.903z M564.482,1368.458
		c-1.377,9.643-2.112,17.94,13.241,17.94c18.123-0.055,42.943-8.297,64.567-19.451l10.027,31.763
		c-20.146,12.417-51.255,22.108-79.448,22.108c-44.918,0.055-54.79-24.729-49.588-59.846l7.689-51.111
		c6.074-39.539,23.872-63.663,75.122-63.711c32.461-0.055,54.873,16.483,55.727,43.679c0.918,29.943-18.415,47.224-64.316,61.445
		c-20.347,6.134-23.853,7.133-31.873,9.24L564.482,1368.458z M621.769,1291.532c-0.258-7.444-7.032-13.018-18.171-13.018
		c-19.187,0-27.507,11.715-29.718,27.582l-2.708,17.182c5.932-1.705,7.653-2.369,24.507-7.539
		C614.333,1309.819,622.095,1302.584,621.769,1291.532 M1346.441,1284.23c-19.568,10.713-31.63,18.658-49.398,30.061
		l-15.439,103.407h-42.195l24.721-165.167l36.187-5.432l-0.932,24.433c11.542-8.648,28.648-19.001,42.743-24.891L1346.441,1284.23z
		 M1348.484,1410.27l6.927-31.305c13.475,4.417,30.708,8.534,47.721,8.534c18.516-0.043,22.234-3.063,23.995-14.766
		c1.362-10.409-0.434-14.131-25.958-26.54c-36.351-17.581-40.679-30.397-36.904-55.82c4.8-33.724,18.082-44.078,62.716-44.129
		c16.017,0,37.024,3.722,50.752,8.194l-5.889,31.711c-13.063-3.722-32.307-6.481-44.17-6.481c-16.734,0-21.609,0.754-23.337,12.765
		c-1.735,11.356,1.486,13.823,20.347,23.723c39.661,21.042,46.813,27.582,43.075,54.111c-5.372,37.541-17.758,50.606-65.645,50.653
		C1386.418,1420.919,1362.95,1416.494,1348.484,1410.27 M816.293,1410.27l6.975-31.305c13.424,4.417,30.655,8.534,47.701,8.534
		c18.483-0.043,22.228-3.063,23.967-14.766c1.373-10.409-0.398-14.131-25.933-26.54c-36.388-17.581-40.707-30.397-36.965-55.82
		c4.853-33.724,18.121-44.078,62.747-44.129c16.015,0,37.024,3.722,50.74,8.194l-5.885,31.711
		c-13.003-3.722-32.311-6.481-44.156-6.481c-16.736,0-21.591,0.754-23.32,12.765c-1.737,11.356,1.476,13.823,20.348,23.723
		c39.641,21.042,46.817,27.582,43.065,54.111c-5.374,37.541-17.808,50.606-65.619,50.653
		C854.221,1420.919,830.751,1416.494,816.293,1410.27 M675.708,1410.27l6.967-31.305c13.456,4.417,30.701,8.534,47.685,8.534
		c18.532-0.043,22.25-3.063,24.011-14.766c1.364-10.409-0.45-14.131-25.984-26.54c-36.313-17.581-40.681-30.397-36.898-55.82
		c4.796-33.724,18.078-44.078,62.732-44.129c15.99,0,37.008,3.722,50.752,8.194l-5.931,31.711
		c-13.008-3.722-32.277-6.481-44.131-6.481c-16.712,0-21.591,0.754-23.341,12.765c-1.711,11.356,1.502,13.823,20.34,23.723
		c39.663,21.042,46.838,27.582,43.069,54.111c-5.368,37.541-17.789,50.606-65.617,50.653
		C713.68,1420.919,690.157,1416.494,675.708,1410.27 M72.884,1249.918l6.505-43.17h91.214l5.652-37.49H42.819L0,1455.642h42.112
		l25.551-170.496h87.999l-19.805,132.552h42.209l25.021-167.78H72.884z M1096.073,1249.918l6.491-43.17h91.192l5.664-37.49h-133.397
		l-42.856,286.384h42.161l25.518-170.496h87.989l-19.787,132.552h42.199l25.028-167.78H1096.073z"/>
	<path fill="#C8102E" d="M580.216,650.436h169.292l32.511-217.778H612.768L580.216,650.436z M661.069,110l-34.273,229.296h320.957
		L981.983,110H661.069z M505.287,768.826L603.739,110H201.106l-34.249,229.296h160.451l-64.166,429.53H102.647L68.396,998.071
		h563.128l34.241-229.245H505.287z"/>
	<polygon fill="#C8102E" points="27.133,186.779 12.883,186.779 24.155,122.816 2.692,122.816 4.851,110.296 62.033,110.296 
		59.767,122.816 38.358,122.816 	"/>
	<polygon fill="#C8102E" points="127.737,137.63 105.712,176.777 90.18,176.777 82.846,137.531 71.783,186.779 57.818,186.779 
		75.256,110.296 90.421,110.296 100.423,162.098 129.332,110.296 144.943,110.296 135.308,186.779 121.086,186.779 	"/>
</g>
</svg>
